{"glyphs":{"0":{"ha":972,"x_min":0,"x_max":833,"o":"m 0 1319 l 69 1319 l 69 1389 l 764 1389 l 764 1319 l 833 1319 l 833 69 l 764 69 l 764 0 l 69 0 l 69 69 l 0 69 l 0 1319 m 556 694 l 486 694 l 486 625 l 417 625 l 417 556 l 347 556 l 347 486 l 278 486 l 278 278 l 556 278 l 556 694 m 278 694 l 347 694 l 347 764 l 417 764 l 417 833 l 486 833 l 486 903 l 556 903 l 556 1111 l 278 1111 l 278 694 m 69 1250 l 139 1250 l 139 1319 l 69 1319 l 69 1250 z "},"1":{"ha":972,"x_min":0,"x_max":833,"o":"m 0 1319 l 69 1319 l 69 1389 l 556 1389 l 556 278 l 833 278 l 833 0 l 0 0 l 0 278 l 278 278 l 278 1111 l 0 1111 l 0 1319 m 69 1250 l 139 1250 l 139 1319 l 69 1319 l 69 1250 z "},"2":{"ha":972,"x_min":0,"x_max":833,"o":"m 0 1319 l 69 1319 l 69 1389 l 764 1389 l 764 1319 l 833 1319 l 833 625 l 764 625 l 764 556 l 278 556 l 278 278 l 833 278 l 833 0 l 0 0 l 0 764 l 69 764 l 69 833 l 556 833 l 556 1111 l 278 1111 l 278 972 l 0 972 l 0 1319 m 69 1250 l 139 1250 l 139 1319 l 69 1319 l 69 1250 z "},"3":{"ha":972,"x_min":0,"x_max":833,"o":"m 0 1319 l 69 1319 l 69 1389 l 764 1389 l 764 1319 l 833 1319 l 833 833 l 764 833 l 764 556 l 833 556 l 833 69 l 764 69 l 764 0 l 69 0 l 69 69 l 0 69 l 0 417 l 278 417 l 278 278 l 556 278 l 556 556 l 278 556 l 278 833 l 556 833 l 556 1111 l 278 1111 l 278 972 l 0 972 l 0 1319 m 69 1250 l 139 1250 l 139 1319 l 69 1319 l 69 1250 z "},"4":{"ha":972,"x_min":0,"x_max":833,"o":"m 0 1319 l 69 1319 l 69 1389 l 278 1389 l 278 833 l 556 833 l 556 1250 l 833 1250 l 833 0 l 556 0 l 556 556 l 69 556 l 69 625 l 0 625 l 0 1319 m 69 1250 l 139 1250 l 139 1319 l 69 1319 l 69 1250 z "},"5":{"ha":972,"x_min":0,"x_max":833,"o":"m 0 1389 l 833 1389 l 833 1111 l 278 1111 l 278 833 l 764 833 l 764 764 l 833 764 l 833 69 l 764 69 l 764 0 l 69 0 l 69 69 l 0 69 l 0 417 l 278 417 l 278 278 l 556 278 l 556 556 l 0 556 l 0 1389 m 69 1250 l 139 1250 l 139 1319 l 69 1319 l 69 1250 z "},"6":{"ha":972,"x_min":0,"x_max":833,"o":"m 0 1319 l 69 1319 l 69 1389 l 764 1389 l 764 1319 l 833 1319 l 833 972 l 556 972 l 556 1111 l 278 1111 l 278 833 l 764 833 l 764 764 l 833 764 l 833 69 l 764 69 l 764 0 l 69 0 l 69 69 l 0 69 l 0 1319 m 278 278 l 556 278 l 556 556 l 278 556 l 278 278 m 69 1250 l 139 1250 l 139 1319 l 69 1319 l 69 1250 z "},"7":{"ha":972,"x_min":0,"x_max":833,"o":"m 0 1319 l 69 1319 l 69 1389 l 764 1389 l 764 1319 l 833 1319 l 833 0 l 556 0 l 556 1111 l 278 1111 l 278 833 l 0 833 l 0 1319 m 69 1250 l 139 1250 l 139 1319 l 69 1319 l 69 1250 z "},"8":{"ha":972,"x_min":0,"x_max":833,"o":"m 0 1319 l 69 1319 l 69 1389 l 764 1389 l 764 1319 l 833 1319 l 833 833 l 764 833 l 764 556 l 833 556 l 833 69 l 764 69 l 764 0 l 69 0 l 69 69 l 0 69 l 0 556 l 69 556 l 69 833 l 0 833 l 0 1319 m 278 278 l 556 278 l 556 556 l 278 556 l 278 278 m 278 833 l 556 833 l 556 1111 l 278 1111 l 278 833 m 69 1250 l 139 1250 l 139 1319 l 69 1319 l 69 1250 z "},"9":{"ha":972,"x_min":0,"x_max":833,"o":"m 0 1319 l 69 1319 l 69 1389 l 764 1389 l 764 1319 l 833 1319 l 833 69 l 764 69 l 764 0 l 69 0 l 69 69 l 0 69 l 0 417 l 278 417 l 278 278 l 556 278 l 556 556 l 69 556 l 69 625 l 0 625 l 0 1319 m 278 833 l 556 833 l 556 1111 l 278 1111 l 278 833 m 69 1250 l 139 1250 l 139 1319 l 69 1319 l 69 1250 z "}," ":{"ha":972,"x_min":0,"x_max":0,"o":""},"%":{"ha":1111,"x_min":0,"x_max":972,"o":"m 0 417 l 69 417 l 69 486 l 139 486 l 139 556 l 208 556 l 208 625 l 278 625 l 278 694 l 347 694 l 347 764 l 417 764 l 417 833 l 486 833 l 486 903 l 556 903 l 556 972 l 625 972 l 625 1042 l 694 1042 l 694 1319 l 764 1319 l 764 1389 l 972 1389 l 972 972 l 903 972 l 903 903 l 833 903 l 833 833 l 764 833 l 764 764 l 694 764 l 694 694 l 625 694 l 625 625 l 556 625 l 556 556 l 486 556 l 486 486 l 417 486 l 417 417 l 347 417 l 347 347 l 278 347 l 278 0 l 0 0 l 0 417 m 0 1319 l 69 1319 l 69 1389 l 347 1389 l 347 1319 l 417 1319 l 417 972 l 347 972 l 347 903 l 69 903 l 69 972 l 0 972 l 0 1319 m 556 417 l 625 417 l 625 486 l 903 486 l 903 417 l 972 417 l 972 69 l 903 69 l 903 0 l 625 0 l 625 69 l 556 69 l 556 417 m 139 1042 l 278 1042 l 278 1250 l 139 1250 l 139 1042 m 694 139 l 833 139 l 833 347 l 694 347 l 694 139 m 764 1250 l 833 1250 l 833 1319 l 764 1319 l 764 1250 z "},"&":{"ha":1111,"x_min":0,"x_max":972,"o":"m 0 1319 l 69 1319 l 69 1389 l 625 1389 l 625 1319 l 694 1319 l 694 833 l 903 833 l 903 764 l 972 764 l 972 556 l 694 556 l 694 278 l 972 278 l 972 69 l 903 69 l 903 0 l 694 0 l 694 278 l 625 278 l 625 0 l 69 0 l 69 69 l 0 69 l 0 556 l 69 556 l 69 903 l 0 903 l 0 1319 m 278 833 l 417 833 l 417 1111 l 278 1111 l 278 833 m 278 278 l 417 278 l 417 556 l 278 556 l 278 278 m 694 833 l 625 833 l 625 556 l 694 556 l 694 833 m 69 1250 l 139 1250 l 139 1319 l 69 1319 l 69 1250 z "},"'":{"ha":417,"x_min":0,"x_max":278,"o":"m 0 1319 l 69 1319 l 69 1389 l 278 1389 l 278 972 l 208 972 l 208 903 l 0 903 l 0 1319 z "},"(":{"ha":694,"x_min":0,"x_max":556,"o":"m 0 1111 l 69 1111 l 69 1250 l 139 1250 l 139 1319 l 208 1319 l 208 1389 l 486 1389 l 486 1319 l 556 1319 l 556 1111 l 347 1111 l 347 1042 l 278 1042 l 278 347 l 347 347 l 347 278 l 556 278 l 556 69 l 486 69 l 486 0 l 208 0 l 208 69 l 139 69 l 139 139 l 69 139 l 69 278 l 0 278 l 0 1111 m 208 1250 l 278 1250 l 278 1319 l 208 1319 l 208 1250 z "},")":{"ha":694,"x_min":0,"x_max":556,"o":"m 0 1319 l 69 1319 l 69 1389 l 347 1389 l 347 1319 l 417 1319 l 417 1250 l 486 1250 l 486 1111 l 556 1111 l 556 278 l 486 278 l 486 139 l 417 139 l 417 69 l 347 69 l 347 0 l 69 0 l 69 69 l 0 69 l 0 278 l 208 278 l 208 347 l 278 347 l 278 1042 l 208 1042 l 208 1111 l 0 1111 l 0 1319 m 69 1250 l 139 1250 l 139 1319 l 69 1319 l 69 1250 z "},"*":{"ha":833,"x_min":0,"x_max":694,"o":"m 0 972 l 69 972 l 69 1042 l 208 1042 l 208 972 l 278 972 l 278 903 l 417 903 l 417 972 l 486 972 l 486 1042 l 625 1042 l 625 972 l 694 972 l 694 833 l 625 833 l 625 764 l 556 764 l 556 625 l 625 625 l 625 556 l 694 556 l 694 417 l 625 417 l 625 347 l 486 347 l 486 417 l 417 417 l 417 486 l 278 486 l 278 417 l 208 417 l 208 347 l 69 347 l 69 417 l 0 417 l 0 556 l 69 556 l 69 625 l 139 625 l 139 764 l 69 764 l 69 833 l 0 833 l 0 972 m 69 903 l 139 903 l 139 972 l 69 972 l 69 903 z "},"+":{"ha":972,"x_min":0,"x_max":833,"o":"m 0 764 l 69 764 l 69 833 l 278 833 l 278 1111 l 556 1111 l 556 833 l 764 833 l 764 764 l 833 764 l 833 556 l 556 556 l 556 278 l 278 278 l 278 556 l 0 556 l 0 764 m 69 694 l 139 694 l 139 764 l 69 764 l 69 694 z "},",":{"ha":417,"x_min":0,"x_max":278,"o":"m 0 278 l 208 278 l 208 208 l 278 208 l 278 -208 l 139 -208 l 139 0 l 0 0 l 0 278 z "},"-":{"ha":972,"x_min":0,"x_max":833,"o":"m 0 764 l 69 764 l 69 833 l 764 833 l 764 764 l 833 764 l 833 556 l 0 556 l 0 764 m 69 694 l 139 694 l 139 764 l 69 764 l 69 694 z "},".":{"ha":417,"x_min":0,"x_max":278,"o":"m 0 278 l 278 278 l 278 0 l 0 0 l 0 278 z "},"/":{"ha":1111,"x_min":0,"x_max":972,"o":"m 0 417 l 69 417 l 69 486 l 139 486 l 139 556 l 208 556 l 208 625 l 278 625 l 278 694 l 347 694 l 347 764 l 417 764 l 417 833 l 486 833 l 486 903 l 556 903 l 556 972 l 625 972 l 625 1042 l 694 1042 l 694 1319 l 764 1319 l 764 1389 l 972 1389 l 972 972 l 903 972 l 903 903 l 833 903 l 833 833 l 764 833 l 764 764 l 694 764 l 694 694 l 625 694 l 625 625 l 556 625 l 556 556 l 486 556 l 486 486 l 417 486 l 417 417 l 347 417 l 347 347 l 278 347 l 278 0 l 0 0 l 0 417 m 764 1250 l 833 1250 l 833 1319 l 764 1319 l 764 1250 z "},":":{"ha":417,"x_min":0,"x_max":278,"o":"m 0 1111 l 278 1111 l 278 833 l 0 833 l 0 1111 m 0 556 l 278 556 l 278 278 l 0 278 l 0 556 z "},";":{"ha":417,"x_min":0,"x_max":278,"o":"m 0 278 l 208 278 l 208 208 l 278 208 l 278 -208 l 139 -208 l 139 0 l 0 0 l 0 278 m 0 1111 l 278 1111 l 278 833 l 0 833 l 0 1111 z "},"<":{"ha":694,"x_min":0,"x_max":556,"o":"m 0 764 l 69 764 l 69 833 l 139 833 l 139 903 l 208 903 l 208 972 l 278 972 l 278 1042 l 347 1042 l 347 1111 l 417 1111 l 417 1181 l 486 1181 l 486 1111 l 556 1111 l 556 903 l 486 903 l 486 833 l 417 833 l 417 764 l 347 764 l 347 625 l 417 625 l 417 556 l 486 556 l 486 486 l 556 486 l 556 278 l 486 278 l 486 208 l 417 208 l 417 278 l 347 278 l 347 347 l 278 347 l 278 417 l 208 417 l 208 486 l 139 486 l 139 556 l 69 556 l 69 625 l 0 625 l 0 764 m 417 1042 l 486 1042 l 486 1111 l 417 1111 l 417 1042 z "},"=":{"ha":972,"x_min":0,"x_max":833,"o":"m 0 972 l 69 972 l 69 1042 l 764 1042 l 764 972 l 833 972 l 833 764 l 0 764 l 0 972 m 0 625 l 833 625 l 833 417 l 764 417 l 764 347 l 69 347 l 69 417 l 0 417 l 0 625 m 69 903 l 139 903 l 139 972 l 69 972 l 69 903 z "},">":{"ha":694,"x_min":0,"x_max":556,"o":"m 0 1111 l 69 1111 l 69 1181 l 139 1181 l 139 1111 l 208 1111 l 208 1042 l 278 1042 l 278 972 l 347 972 l 347 903 l 417 903 l 417 833 l 486 833 l 486 764 l 556 764 l 556 625 l 486 625 l 486 556 l 417 556 l 417 486 l 347 486 l 347 417 l 278 417 l 278 347 l 208 347 l 208 278 l 139 278 l 139 208 l 69 208 l 69 278 l 0 278 l 0 486 l 69 486 l 69 556 l 139 556 l 139 625 l 208 625 l 208 764 l 139 764 l 139 833 l 69 833 l 69 903 l 0 903 l 0 1111 m 69 1042 l 139 1042 l 139 1111 l 69 1111 l 69 1042 z "},"?":{"ha":972,"x_min":0,"x_max":833,"o":"m 0 1319 l 69 1319 l 69 1389 l 764 1389 l 764 1319 l 833 1319 l 833 625 l 764 625 l 764 556 l 556 556 l 556 417 l 278 417 l 278 764 l 347 764 l 347 833 l 556 833 l 556 1111 l 278 1111 l 278 972 l 0 972 l 0 1319 m 278 278 l 556 278 l 556 0 l 278 0 l 278 278 m 69 1250 l 139 1250 l 139 1319 l 69 1319 l 69 1250 z "},"@":{"ha":1111,"x_min":0,"x_max":972,"o":"m 0 1319 l 69 1319 l 69 1389 l 903 1389 l 903 1319 l 972 1319 l 972 486 l 903 486 l 903 417 l 486 417 l 486 486 l 417 486 l 417 694 l 694 694 l 694 1111 l 278 1111 l 278 278 l 972 278 l 972 69 l 903 69 l 903 0 l 69 0 l 69 69 l 0 69 l 0 1319 m 69 1250 l 139 1250 l 139 1319 l 69 1319 l 69 1250 z "},"A":{"ha":972,"x_min":0,"x_max":833,"o":"m 0 1319 l 69 1319 l 69 1389 l 764 1389 l 764 1319 l 833 1319 l 833 0 l 556 0 l 556 556 l 278 556 l 278 0 l 0 0 l 0 1319 m 278 833 l 556 833 l 556 1111 l 278 1111 l 278 833 m 69 1250 l 139 1250 l 139 1319 l 69 1319 l 69 1250 z "},"B":{"ha":972,"x_min":0,"x_max":833,"o":"m 0 1319 l 69 1319 l 69 1389 l 764 1389 l 764 1319 l 833 1319 l 833 833 l 764 833 l 764 556 l 833 556 l 833 69 l 764 69 l 764 0 l 0 0 l 0 1319 m 278 278 l 556 278 l 556 556 l 278 556 l 278 278 m 278 833 l 556 833 l 556 1111 l 278 1111 l 278 833 m 69 1250 l 139 1250 l 139 1319 l 69 1319 l 69 1250 z "},"C":{"ha":972,"x_min":0,"x_max":833,"o":"m 0 1319 l 69 1319 l 69 1389 l 764 1389 l 764 1319 l 833 1319 l 833 972 l 556 972 l 556 1111 l 278 1111 l 278 278 l 556 278 l 556 417 l 833 417 l 833 69 l 764 69 l 764 0 l 69 0 l 69 69 l 0 69 l 0 1319 m 69 1250 l 139 1250 l 139 1319 l 69 1319 l 69 1250 z "},"D":{"ha":972,"x_min":0,"x_max":833,"o":"m 0 1389 l 764 1389 l 764 1319 l 833 1319 l 833 69 l 764 69 l 764 0 l 0 0 l 0 1389 m 278 278 l 556 278 l 556 1111 l 278 1111 l 278 278 m 69 1250 l 139 1250 l 139 1319 l 69 1319 l 69 1250 z "},"E":{"ha":972,"x_min":0,"x_max":833,"o":"m 0 1319 l 69 1319 l 69 1389 l 764 1389 l 764 1319 l 833 1319 l 833 1111 l 278 1111 l 278 833 l 694 833 l 694 556 l 278 556 l 278 278 l 833 278 l 833 69 l 764 69 l 764 0 l 69 0 l 69 69 l 0 69 l 0 1319 m 69 1250 l 139 1250 l 139 1319 l 69 1319 l 69 1250 z "},"F":{"ha":972,"x_min":0,"x_max":833,"o":"m 0 1319 l 69 1319 l 69 1389 l 764 1389 l 764 1319 l 833 1319 l 833 1111 l 278 1111 l 278 833 l 694 833 l 694 556 l 278 556 l 278 0 l 0 0 l 0 1319 m 69 1250 l 139 1250 l 139 1319 l 69 1319 l 69 1250 z "},"G":{"ha":972,"x_min":0,"x_max":833,"o":"m 0 1319 l 69 1319 l 69 1389 l 764 1389 l 764 1111 l 278 1111 l 278 278 l 556 278 l 556 556 l 417 556 l 417 833 l 764 833 l 764 764 l 833 764 l 833 69 l 764 69 l 764 0 l 69 0 l 69 69 l 0 69 l 0 1319 m 69 1250 l 139 1250 l 139 1319 l 69 1319 l 69 1250 z "},"H":{"ha":972,"x_min":0,"x_max":833,"o":"m 0 1319 l 69 1319 l 69 1389 l 278 1389 l 278 833 l 556 833 l 556 1389 l 764 1389 l 764 1319 l 833 1319 l 833 0 l 556 0 l 556 556 l 278 556 l 278 0 l 0 0 l 0 1319 m 69 1250 l 139 1250 l 139 1319 l 69 1319 l 69 1250 z "},"I":{"ha":972,"x_min":0,"x_max":833,"o":"m 0 1319 l 69 1319 l 69 1389 l 764 1389 l 764 1319 l 833 1319 l 833 1111 l 556 1111 l 556 278 l 833 278 l 833 0 l 0 0 l 0 278 l 278 278 l 278 1111 l 0 1111 l 0 1319 m 69 1250 l 139 1250 l 139 1319 l 69 1319 l 69 1250 z "},"J":{"ha":972,"x_min":0,"x_max":833,"o":"m 0 1319 l 69 1319 l 69 1389 l 833 1389 l 833 69 l 764 69 l 764 0 l 69 0 l 69 69 l 0 69 l 0 556 l 278 556 l 278 278 l 556 278 l 556 1111 l 278 1111 l 278 972 l 0 972 l 0 1319 m 69 1250 l 139 1250 l 139 1319 l 69 1319 l 69 1250 z "},"K":{"ha":972,"x_min":0,"x_max":833,"o":"m 0 1319 l 69 1319 l 69 1389 l 278 1389 l 278 833 l 417 833 l 417 903 l 486 903 l 486 972 l 556 972 l 556 1389 l 764 1389 l 764 1319 l 833 1319 l 833 903 l 764 903 l 764 833 l 694 833 l 694 764 l 625 764 l 625 625 l 694 625 l 694 556 l 764 556 l 764 486 l 833 486 l 833 0 l 556 0 l 556 417 l 486 417 l 486 486 l 417 486 l 417 556 l 278 556 l 278 0 l 0 0 l 0 1319 m 69 1250 l 139 1250 l 139 1319 l 69 1319 l 69 1250 z "},"L":{"ha":972,"x_min":0,"x_max":833,"o":"m 0 1319 l 69 1319 l 69 1389 l 278 1389 l 278 278 l 833 278 l 833 0 l 0 0 l 0 1319 m 69 1250 l 139 1250 l 139 1319 l 69 1319 l 69 1250 z "},"M":{"ha":1111,"x_min":0,"x_max":972,"o":"m 0 1319 l 69 1319 l 69 1389 l 278 1389 l 278 1111 l 347 1111 l 347 1042 l 417 1042 l 417 972 l 556 972 l 556 1042 l 625 1042 l 625 1111 l 694 1111 l 694 1389 l 903 1389 l 903 1319 l 972 1319 l 972 0 l 694 0 l 694 764 l 625 764 l 625 694 l 556 694 l 556 417 l 417 417 l 417 694 l 347 694 l 347 764 l 278 764 l 278 0 l 0 0 l 0 1319 m 69 1250 l 139 1250 l 139 1319 l 69 1319 l 69 1250 z "},"N":{"ha":972,"x_min":0,"x_max":833,"o":"m 0 1319 l 69 1319 l 69 1389 l 278 1389 l 278 972 l 347 972 l 347 903 l 417 903 l 417 833 l 486 833 l 486 764 l 556 764 l 556 1389 l 764 1389 l 764 1319 l 833 1319 l 833 0 l 556 0 l 556 417 l 486 417 l 486 486 l 417 486 l 417 556 l 347 556 l 347 625 l 278 625 l 278 0 l 0 0 l 0 1319 m 69 1250 l 139 1250 l 139 1319 l 69 1319 l 69 1250 z "},"O":{"ha":972,"x_min":0,"x_max":833,"o":"m 0 1319 l 69 1319 l 69 1389 l 764 1389 l 764 1319 l 833 1319 l 833 69 l 764 69 l 764 0 l 69 0 l 69 69 l 0 69 l 0 1319 m 278 278 l 556 278 l 556 1111 l 278 1111 l 278 278 m 69 1250 l 139 1250 l 139 1319 l 69 1319 l 69 1250 z "},"P":{"ha":972,"x_min":0,"x_max":833,"o":"m 0 1319 l 69 1319 l 69 1389 l 764 1389 l 764 1319 l 833 1319 l 833 625 l 764 625 l 764 556 l 278 556 l 278 0 l 0 0 l 0 1319 m 278 833 l 556 833 l 556 1111 l 278 1111 l 278 833 m 69 1250 l 139 1250 l 139 1319 l 69 1319 l 69 1250 z "},"Q":{"ha":972,"x_min":0,"x_max":833,"o":"m 0 1319 l 69 1319 l 69 1389 l 764 1389 l 764 1319 l 833 1319 l 833 69 l 764 69 l 764 0 l 69 0 l 69 69 l 0 69 l 0 1319 m 278 278 l 417 278 l 417 486 l 486 486 l 486 556 l 556 556 l 556 1111 l 278 1111 l 278 278 m 69 1250 l 139 1250 l 139 1319 l 69 1319 l 69 1250 m 486 417 l 556 417 l 556 486 l 486 486 l 486 417 z "},"R":{"ha":972,"x_min":0,"x_max":833,"o":"m 0 1319 l 69 1319 l 69 1389 l 764 1389 l 764 1319 l 833 1319 l 833 694 l 764 694 l 764 625 l 694 625 l 694 556 l 764 556 l 764 486 l 833 486 l 833 0 l 556 0 l 556 417 l 486 417 l 486 486 l 417 486 l 417 556 l 278 556 l 278 0 l 0 0 l 0 1319 m 278 833 l 556 833 l 556 1111 l 278 1111 l 278 833 m 69 1250 l 139 1250 l 139 1319 l 69 1319 l 69 1250 z "},"S":{"ha":972,"x_min":0,"x_max":833,"o":"m 0 1319 l 69 1319 l 69 1389 l 764 1389 l 764 1319 l 833 1319 l 833 972 l 556 972 l 556 1111 l 278 1111 l 278 833 l 764 833 l 764 764 l 833 764 l 833 69 l 764 69 l 764 0 l 69 0 l 69 69 l 0 69 l 0 417 l 278 417 l 278 278 l 556 278 l 556 556 l 69 556 l 69 625 l 0 625 l 0 1319 m 69 1250 l 139 1250 l 139 1319 l 69 1319 l 69 1250 z "},"T":{"ha":972,"x_min":0,"x_max":833,"o":"m 0 1319 l 69 1319 l 69 1389 l 764 1389 l 764 1319 l 833 1319 l 833 1111 l 556 1111 l 556 0 l 278 0 l 278 1111 l 0 1111 l 0 1319 m 69 1250 l 139 1250 l 139 1319 l 69 1319 l 69 1250 z "},"U":{"ha":972,"x_min":0,"x_max":833,"o":"m 0 1319 l 69 1319 l 69 1389 l 278 1389 l 278 278 l 556 278 l 556 1389 l 764 1389 l 764 1319 l 833 1319 l 833 69 l 764 69 l 764 0 l 69 0 l 69 69 l 0 69 l 0 1319 m 69 1250 l 139 1250 l 139 1319 l 69 1319 l 69 1250 z "},"V":{"ha":972,"x_min":0,"x_max":833,"o":"m 0 1319 l 69 1319 l 69 1389 l 278 1389 l 278 347 l 347 347 l 347 278 l 486 278 l 486 347 l 556 347 l 556 1389 l 764 1389 l 764 1319 l 833 1319 l 833 278 l 764 278 l 764 208 l 694 208 l 694 139 l 625 139 l 625 69 l 556 69 l 556 0 l 278 0 l 278 69 l 208 69 l 208 139 l 139 139 l 139 208 l 69 208 l 69 278 l 0 278 l 0 1319 m 69 1250 l 139 1250 l 139 1319 l 69 1319 l 69 1250 z "},"W":{"ha":1111,"x_min":0,"x_max":972,"o":"m 0 1319 l 69 1319 l 69 1389 l 278 1389 l 278 278 l 417 278 l 417 1111 l 556 1111 l 556 278 l 694 278 l 694 1389 l 903 1389 l 903 1319 l 972 1319 l 972 69 l 903 69 l 903 0 l 69 0 l 69 69 l 0 69 l 0 1319 m 69 1250 l 139 1250 l 139 1319 l 69 1319 l 69 1250 z "},"X":{"ha":972,"x_min":0,"x_max":833,"o":"m 0 1319 l 69 1319 l 69 1389 l 278 1389 l 278 972 l 347 972 l 347 903 l 486 903 l 486 972 l 556 972 l 556 1389 l 764 1389 l 764 1319 l 833 1319 l 833 903 l 764 903 l 764 833 l 694 833 l 694 764 l 625 764 l 625 625 l 694 625 l 694 556 l 764 556 l 764 486 l 833 486 l 833 0 l 556 0 l 556 417 l 486 417 l 486 486 l 347 486 l 347 417 l 278 417 l 278 0 l 0 0 l 0 486 l 69 486 l 69 556 l 139 556 l 139 625 l 208 625 l 208 764 l 139 764 l 139 833 l 69 833 l 69 903 l 0 903 l 0 1319 m 69 1250 l 139 1250 l 139 1319 l 69 1319 l 69 1250 z "},"Y":{"ha":972,"x_min":0,"x_max":833,"o":"m 0 1319 l 69 1319 l 69 1389 l 278 1389 l 278 972 l 347 972 l 347 903 l 486 903 l 486 972 l 556 972 l 556 1389 l 764 1389 l 764 1319 l 833 1319 l 833 903 l 764 903 l 764 833 l 694 833 l 694 764 l 625 764 l 625 694 l 556 694 l 556 0 l 278 0 l 278 694 l 208 694 l 208 764 l 139 764 l 139 833 l 69 833 l 69 903 l 0 903 l 0 1319 m 69 1250 l 139 1250 l 139 1319 l 69 1319 l 69 1250 z "},"Z":{"ha":972,"x_min":0,"x_max":833,"o":"m 0 1319 l 69 1319 l 69 1389 l 764 1389 l 764 1319 l 833 1319 l 833 903 l 764 903 l 764 833 l 694 833 l 694 764 l 625 764 l 625 694 l 556 694 l 556 625 l 486 625 l 486 556 l 417 556 l 417 486 l 347 486 l 347 417 l 278 417 l 278 278 l 833 278 l 833 69 l 764 69 l 764 0 l 69 0 l 69 69 l 0 69 l 0 486 l 69 486 l 69 556 l 139 556 l 139 625 l 208 625 l 208 694 l 278 694 l 278 764 l 347 764 l 347 833 l 417 833 l 417 903 l 486 903 l 486 972 l 556 972 l 556 1111 l 0 1111 l 0 1319 m 69 1250 l 139 1250 l 139 1319 l 69 1319 l 69 1250 z "},"[":{"ha":694,"x_min":0,"x_max":556,"o":"m 0 1319 l 69 1319 l 69 1389 l 486 1389 l 486 1319 l 556 1319 l 556 1111 l 278 1111 l 278 278 l 556 278 l 556 69 l 486 69 l 486 0 l 69 0 l 69 69 l 0 69 l 0 1319 m 69 1250 l 139 1250 l 139 1319 l 69 1319 l 69 1250 z "},"\\":{"ha":1111,"x_min":0,"x_max":972,"o":"m 0 1319 l 69 1319 l 69 1389 l 278 1389 l 278 1042 l 347 1042 l 347 972 l 417 972 l 417 903 l 486 903 l 486 833 l 556 833 l 556 764 l 625 764 l 625 694 l 694 694 l 694 625 l 764 625 l 764 556 l 833 556 l 833 486 l 903 486 l 903 417 l 972 417 l 972 0 l 694 0 l 694 347 l 625 347 l 625 417 l 556 417 l 556 486 l 486 486 l 486 556 l 417 556 l 417 625 l 347 625 l 347 694 l 278 694 l 278 764 l 208 764 l 208 833 l 139 833 l 139 903 l 69 903 l 69 972 l 0 972 l 0 1319 m 69 1250 l 139 1250 l 139 1319 l 69 1319 l 69 1250 z "},"]":{"ha":972,"x_min":0,"x_max":556,"o":"m 0 1319 l 69 1319 l 69 1389 l 486 1389 l 486 1319 l 556 1319 l 556 69 l 486 69 l 486 0 l 69 0 l 69 69 l 0 69 l 0 278 l 278 278 l 278 1111 l 0 1111 l 0 1319 m 69 1250 l 139 1250 l 139 1319 l 69 1319 l 69 1250 z "},"^":{"ha":1111,"x_min":0,"x_max":972,"o":"m 0 972 l 69 972 l 69 1042 l 139 1042 l 139 1111 l 208 1111 l 208 1181 l 278 1181 l 278 1250 l 347 1250 l 347 1319 l 417 1319 l 417 1389 l 556 1389 l 556 1319 l 625 1319 l 625 1250 l 694 1250 l 694 1181 l 764 1181 l 764 1111 l 833 1111 l 833 1042 l 903 1042 l 903 972 l 972 972 l 972 903 l 903 903 l 903 833 l 694 833 l 694 903 l 625 903 l 625 972 l 556 972 l 556 1042 l 417 1042 l 417 972 l 347 972 l 347 903 l 278 903 l 278 833 l 69 833 l 69 903 l 0 903 l 0 972 m 417 1250 l 486 1250 l 486 1319 l 417 1319 l 417 1250 z "},"_":{"ha":972,"x_min":0,"x_max":833,"o":"m 0 208 l 69 208 l 69 278 l 764 278 l 764 208 l 833 208 l 833 0 l 0 0 l 0 208 m 69 139 l 139 139 l 139 208 l 69 208 l 69 139 z "},"`":{"ha":694,"x_min":0,"x_max":556,"o":"m 0 1389 l 278 1389 l 278 1319 l 347 1319 l 347 1250 l 417 1250 l 417 1181 l 486 1181 l 486 1111 l 556 1111 l 556 1042 l 278 1042 l 278 1111 l 208 1111 l 208 1181 l 139 1181 l 139 1250 l 69 1250 l 69 1319 l 0 1319 l 0 1389 z "},"a":{"ha":972,"x_min":0,"x_max":833,"o":"m 0 1042 l 69 1042 l 69 1111 l 764 1111 l 764 1042 l 833 1042 l 833 0 l 69 0 l 69 69 l 0 69 l 0 625 l 69 625 l 69 694 l 556 694 l 556 833 l 0 833 l 0 1042 m 278 278 l 556 278 l 556 417 l 278 417 l 278 278 m 69 972 l 139 972 l 139 1042 l 69 1042 l 69 972 z "},"b":{"ha":972,"x_min":0,"x_max":833,"o":"m 0 1319 l 69 1319 l 69 1389 l 278 1389 l 278 1111 l 764 1111 l 764 1042 l 833 1042 l 833 69 l 764 69 l 764 0 l 0 0 l 0 1319 m 278 278 l 556 278 l 556 833 l 278 833 l 278 278 m 69 1250 l 139 1250 l 139 1319 l 69 1319 l 69 1250 z "},"c":{"ha":972,"x_min":0,"x_max":833,"o":"m 0 1042 l 69 1042 l 69 1111 l 764 1111 l 764 1042 l 833 1042 l 833 694 l 556 694 l 556 833 l 278 833 l 278 278 l 556 278 l 556 417 l 833 417 l 833 69 l 764 69 l 764 0 l 69 0 l 69 69 l 0 69 l 0 1042 m 69 972 l 139 972 l 139 1042 l 69 1042 l 69 972 z "},"d":{"ha":972,"x_min":0,"x_max":833,"o":"m 0 1042 l 69 1042 l 69 1111 l 556 1111 l 556 1389 l 833 1389 l 833 0 l 69 0 l 69 69 l 0 69 l 0 1042 m 278 278 l 556 278 l 556 833 l 278 833 l 278 278 m 69 972 l 139 972 l 139 1042 l 69 1042 l 69 972 z "},"e":{"ha":972,"x_min":0,"x_max":833,"o":"m 0 1042 l 69 1042 l 69 1111 l 764 1111 l 764 1042 l 833 1042 l 833 486 l 764 486 l 764 417 l 278 417 l 278 278 l 833 278 l 833 0 l 69 0 l 69 69 l 0 69 l 0 1042 m 278 694 l 556 694 l 556 833 l 278 833 l 278 694 m 69 972 l 139 972 l 139 1042 l 69 1042 l 69 972 z "},"f":{"ha":833,"x_min":0,"x_max":694,"o":"m 0 972 l 139 972 l 139 1319 l 208 1319 l 208 1389 l 625 1389 l 625 1319 l 694 1319 l 694 1111 l 417 1111 l 417 972 l 625 972 l 625 694 l 417 694 l 417 0 l 139 0 l 139 694 l 0 694 l 0 972 m 208 1250 l 278 1250 l 278 1319 l 208 1319 l 208 1250 z "},"g":{"ha":972,"x_min":0,"x_max":833,"o":"m 0 1042 l 69 1042 l 69 1111 l 764 1111 l 764 1042 l 833 1042 l 833 -347 l 764 -347 l 764 -417 l 208 -417 l 208 -347 l 139 -347 l 139 -139 l 556 -139 l 556 0 l 69 0 l 69 69 l 0 69 l 0 1042 m 278 278 l 556 278 l 556 833 l 278 833 l 278 278 m 69 972 l 139 972 l 139 1042 l 69 1042 l 69 972 z "},"h":{"ha":972,"x_min":0,"x_max":833,"o":"m 0 1319 l 69 1319 l 69 1389 l 278 1389 l 278 1111 l 764 1111 l 764 1042 l 833 1042 l 833 0 l 556 0 l 556 833 l 278 833 l 278 0 l 0 0 l 0 1319 m 69 1250 l 139 1250 l 139 1319 l 69 1319 l 69 1250 z "},"i":{"ha":694,"x_min":0,"x_max":556,"o":"m 0 1042 l 69 1042 l 69 1111 l 486 1111 l 486 1042 l 556 1042 l 556 833 l 417 833 l 417 278 l 556 278 l 556 0 l 0 0 l 0 278 l 139 278 l 139 833 l 0 833 l 0 1042 m 139 1319 l 208 1319 l 208 1389 l 417 1389 l 417 1181 l 139 1181 l 139 1319 m 69 972 l 139 972 l 139 1042 l 69 1042 l 69 972 z "},"j":{"ha":694,"x_min":0,"x_max":556,"o":"m 0 -139 l 278 -139 l 278 1042 l 347 1042 l 347 1111 l 556 1111 l 556 -347 l 486 -347 l 486 -417 l 69 -417 l 69 -347 l 0 -347 l 0 -139 m 278 1319 l 347 1319 l 347 1389 l 556 1389 l 556 1181 l 278 1181 l 278 1319 m 347 972 l 417 972 l 417 1042 l 347 1042 l 347 972 z "},"k":{"ha":972,"x_min":0,"x_max":833,"o":"m 0 1319 l 69 1319 l 69 1389 l 278 1389 l 278 694 l 417 694 l 417 764 l 486 764 l 486 833 l 556 833 l 556 1111 l 833 1111 l 833 764 l 764 764 l 764 694 l 694 694 l 694 625 l 625 625 l 625 486 l 694 486 l 694 417 l 764 417 l 764 347 l 833 347 l 833 0 l 556 0 l 556 278 l 486 278 l 486 347 l 417 347 l 417 417 l 278 417 l 278 0 l 0 0 l 0 1319 m 69 1250 l 139 1250 l 139 1319 l 69 1319 l 69 1250 z "},"l":{"ha":417,"x_min":0,"x_max":278,"o":"m 0 1319 l 69 1319 l 69 1389 l 278 1389 l 278 0 l 0 0 l 0 1319 m 69 1250 l 139 1250 l 139 1319 l 69 1319 l 69 1250 z "},"m":{"ha":1111,"x_min":0,"x_max":972,"o":"m 0 1042 l 69 1042 l 69 1111 l 903 1111 l 903 1042 l 972 1042 l 972 0 l 694 0 l 694 833 l 556 833 l 556 0 l 417 0 l 417 833 l 278 833 l 278 0 l 0 0 l 0 1042 m 69 972 l 139 972 l 139 1042 l 69 1042 l 69 972 z "},"n":{"ha":972,"x_min":0,"x_max":833,"o":"m 0 1042 l 69 1042 l 69 1111 l 764 1111 l 764 1042 l 833 1042 l 833 0 l 556 0 l 556 833 l 278 833 l 278 0 l 0 0 l 0 1042 m 69 972 l 139 972 l 139 1042 l 69 1042 l 69 972 z "},"o":{"ha":972,"x_min":0,"x_max":833,"o":"m 0 1042 l 69 1042 l 69 1111 l 764 1111 l 764 1042 l 833 1042 l 833 69 l 764 69 l 764 0 l 69 0 l 69 69 l 0 69 l 0 1042 m 278 278 l 556 278 l 556 833 l 278 833 l 278 278 m 69 972 l 139 972 l 139 1042 l 69 1042 l 69 972 z "},"p":{"ha":972,"x_min":0,"x_max":833,"o":"m 0 1042 l 69 1042 l 69 1111 l 764 1111 l 764 1042 l 833 1042 l 833 69 l 764 69 l 764 0 l 278 0 l 278 -417 l 0 -417 l 0 1042 m 278 278 l 556 278 l 556 833 l 278 833 l 278 278 m 69 972 l 139 972 l 139 1042 l 69 1042 l 69 972 z "},"q":{"ha":972,"x_min":0,"x_max":833,"o":"m 0 1042 l 69 1042 l 69 1111 l 764 1111 l 764 1042 l 833 1042 l 833 -417 l 556 -417 l 556 0 l 69 0 l 69 69 l 0 69 l 0 1042 m 278 278 l 556 278 l 556 833 l 278 833 l 278 278 m 69 972 l 139 972 l 139 1042 l 69 1042 l 69 972 z "},"r":{"ha":972,"x_min":0,"x_max":833,"o":"m 0 1042 l 69 1042 l 69 1111 l 764 1111 l 764 1042 l 833 1042 l 833 694 l 556 694 l 556 833 l 278 833 l 278 0 l 0 0 l 0 1042 m 69 972 l 139 972 l 139 1042 l 69 1042 l 69 972 z "},"s":{"ha":972,"x_min":0,"x_max":833,"o":"m 0 1042 l 69 1042 l 69 1111 l 764 1111 l 764 1042 l 833 1042 l 833 833 l 278 833 l 278 694 l 764 694 l 764 625 l 833 625 l 833 69 l 764 69 l 764 0 l 69 0 l 69 69 l 0 69 l 0 278 l 556 278 l 556 417 l 69 417 l 69 486 l 0 486 l 0 1042 m 69 972 l 139 972 l 139 1042 l 69 1042 l 69 972 z "},"t":{"ha":833,"x_min":0,"x_max":694,"o":"m 0 972 l 139 972 l 139 1319 l 208 1319 l 208 1389 l 417 1389 l 417 972 l 625 972 l 625 694 l 417 694 l 417 278 l 694 278 l 694 69 l 625 69 l 625 0 l 208 0 l 208 69 l 139 69 l 139 694 l 0 694 l 0 972 m 208 1250 l 278 1250 l 278 1319 l 208 1319 l 208 1250 z "},"u":{"ha":972,"x_min":0,"x_max":833,"o":"m 0 1042 l 69 1042 l 69 1111 l 278 1111 l 278 278 l 556 278 l 556 1111 l 764 1111 l 764 1042 l 833 1042 l 833 69 l 764 69 l 764 0 l 69 0 l 69 69 l 0 69 l 0 1042 m 69 972 l 139 972 l 139 1042 l 69 1042 l 69 972 z "},"v":{"ha":972,"x_min":0,"x_max":833,"o":"m 0 1042 l 69 1042 l 69 1111 l 278 1111 l 278 347 l 347 347 l 347 278 l 486 278 l 486 347 l 556 347 l 556 1111 l 764 1111 l 764 1042 l 833 1042 l 833 278 l 764 278 l 764 208 l 694 208 l 694 139 l 625 139 l 625 69 l 556 69 l 556 0 l 278 0 l 278 69 l 208 69 l 208 139 l 139 139 l 139 208 l 69 208 l 69 278 l 0 278 l 0 1042 m 69 972 l 139 972 l 139 1042 l 69 1042 l 69 972 z "},"w":{"ha":1111,"x_min":0,"x_max":972,"o":"m 0 1042 l 69 1042 l 69 1111 l 278 1111 l 278 278 l 417 278 l 417 833 l 556 833 l 556 278 l 694 278 l 694 1111 l 903 1111 l 903 1042 l 972 1042 l 972 69 l 903 69 l 903 0 l 69 0 l 69 69 l 0 69 l 0 1042 m 69 972 l 139 972 l 139 1042 l 69 1042 l 69 972 z "},"x":{"ha":972,"x_min":0,"x_max":833,"o":"m 0 1042 l 69 1042 l 69 1111 l 278 1111 l 278 903 l 347 903 l 347 833 l 486 833 l 486 903 l 556 903 l 556 1111 l 764 1111 l 764 1042 l 833 1042 l 833 833 l 764 833 l 764 764 l 694 764 l 694 694 l 625 694 l 625 625 l 556 625 l 556 486 l 625 486 l 625 417 l 694 417 l 694 347 l 764 347 l 764 278 l 833 278 l 833 0 l 556 0 l 556 208 l 486 208 l 486 278 l 347 278 l 347 208 l 278 208 l 278 0 l 0 0 l 0 278 l 69 278 l 69 347 l 139 347 l 139 417 l 208 417 l 208 486 l 278 486 l 278 625 l 208 625 l 208 694 l 139 694 l 139 764 l 69 764 l 69 833 l 0 833 l 0 1042 m 69 972 l 139 972 l 139 1042 l 69 1042 l 69 972 z "},"y":{"ha":972,"x_min":0,"x_max":833,"o":"m 0 1042 l 69 1042 l 69 1111 l 278 1111 l 278 278 l 556 278 l 556 1111 l 764 1111 l 764 1042 l 833 1042 l 833 -347 l 764 -347 l 764 -417 l 208 -417 l 208 -347 l 139 -347 l 139 -139 l 556 -139 l 556 0 l 69 0 l 69 69 l 0 69 l 0 1042 m 69 972 l 139 972 l 139 1042 l 69 1042 l 69 972 z "},"z":{"ha":972,"x_min":0,"x_max":833,"o":"m 0 1042 l 69 1042 l 69 1111 l 764 1111 l 764 1042 l 833 1042 l 833 764 l 764 764 l 764 694 l 694 694 l 694 625 l 625 625 l 625 556 l 556 556 l 556 486 l 486 486 l 486 417 l 417 417 l 417 347 l 347 347 l 347 278 l 833 278 l 833 0 l 0 0 l 0 347 l 69 347 l 69 417 l 139 417 l 139 486 l 208 486 l 208 556 l 278 556 l 278 625 l 347 625 l 347 694 l 417 694 l 417 764 l 486 764 l 486 833 l 0 833 l 0 1042 m 69 972 l 139 972 l 139 1042 l 69 1042 l 69 972 z "},"{":{"ha":833,"x_min":0,"x_max":694,"o":"m 0 764 l 69 764 l 69 833 l 139 833 l 139 1319 l 208 1319 l 208 1389 l 625 1389 l 625 1319 l 694 1319 l 694 1111 l 417 1111 l 417 278 l 694 278 l 694 69 l 625 69 l 625 0 l 208 0 l 208 69 l 139 69 l 139 556 l 69 556 l 69 625 l 0 625 l 0 764 m 208 1250 l 278 1250 l 278 1319 l 208 1319 l 208 1250 z "},"|":{"ha":417,"x_min":0,"x_max":278,"o":"m 0 1319 l 69 1319 l 69 1389 l 278 1389 l 278 0 l 0 0 l 0 1319 m 69 1250 l 139 1250 l 139 1319 l 69 1319 l 69 1250 z "},"}":{"ha":833,"x_min":0,"x_max":694,"o":"m 0 1319 l 69 1319 l 69 1389 l 486 1389 l 486 1319 l 556 1319 l 556 833 l 625 833 l 625 764 l 694 764 l 694 625 l 625 625 l 625 556 l 556 556 l 556 69 l 486 69 l 486 0 l 69 0 l 69 69 l 0 69 l 0 278 l 278 278 l 278 1111 l 0 1111 l 0 1319 m 69 1250 l 139 1250 l 139 1319 l 69 1319 l 69 1250 z "},"~":{"ha":1250,"x_min":0,"x_max":1111,"o":"m 0 1042 l 69 1042 l 69 1111 l 139 1111 l 139 1181 l 208 1181 l 208 1250 l 278 1250 l 278 1319 l 347 1319 l 347 1389 l 486 1389 l 486 1319 l 556 1319 l 556 1250 l 625 1250 l 625 1181 l 764 1181 l 764 1250 l 833 1250 l 833 1319 l 903 1319 l 903 1389 l 1042 1389 l 1042 1319 l 1111 1319 l 1111 1181 l 1042 1181 l 1042 1111 l 972 1111 l 972 1042 l 903 1042 l 903 972 l 833 972 l 833 903 l 764 903 l 764 833 l 625 833 l 625 903 l 556 903 l 556 972 l 486 972 l 486 1042 l 347 1042 l 347 972 l 278 972 l 278 903 l 208 903 l 208 833 l 69 833 l 69 903 l 0 903 l 0 1042 m 347 1250 l 417 1250 l 417 1319 l 347 1319 l 347 1250 z "},"Ђ":{"ha":1111,"x_min":0,"x_max":972,"o":"m 0 1319 l 69 1319 l 69 1389 l 556 1389 l 556 1319 l 625 1319 l 625 1111 l 417 1111 l 417 833 l 903 833 l 903 764 l 972 764 l 972 69 l 903 69 l 903 0 l 556 0 l 556 278 l 694 278 l 694 556 l 417 556 l 417 0 l 139 0 l 139 1111 l 0 1111 l 0 1319 m 69 1250 l 139 1250 l 139 1319 l 69 1319 l 69 1250 z "},"Ѓ":{"ha":972,"x_min":0,"x_max":833,"o":"m 0 1319 l 69 1319 l 69 1389 l 764 1389 l 764 1319 l 833 1319 l 833 1111 l 278 1111 l 278 0 l 0 0 l 0 1319 m 278 1528 l 347 1528 l 347 1597 l 417 1597 l 417 1667 l 694 1667 l 694 1597 l 625 1597 l 625 1528 l 556 1528 l 556 1458 l 278 1458 l 278 1528 m 69 1250 l 139 1250 l 139 1319 l 69 1319 l 69 1250 z "},"‚":{"ha":417,"x_min":0,"x_max":278,"o":"m 0 278 l 208 278 l 208 208 l 278 208 l 278 -208 l 139 -208 l 139 0 l 0 0 l 0 278 z "},"ѓ":{"ha":972,"x_min":0,"x_max":833,"o":"m 0 1042 l 69 1042 l 69 1111 l 764 1111 l 764 1042 l 833 1042 l 833 833 l 278 833 l 278 0 l 0 0 l 0 1042 m 278 1250 l 347 1250 l 347 1319 l 417 1319 l 417 1389 l 694 1389 l 694 1319 l 625 1319 l 625 1250 l 556 1250 l 556 1181 l 278 1181 l 278 1250 m 69 972 l 139 972 l 139 1042 l 69 1042 l 69 972 z "},"„":{"ha":833,"x_min":0,"x_max":694,"o":"m 0 278 l 208 278 l 208 208 l 278 208 l 278 -208 l 139 -208 l 139 0 l 0 0 l 0 278 m 417 278 l 625 278 l 625 208 l 694 208 l 694 -208 l 556 -208 l 556 0 l 417 0 l 417 278 z "},"…":{"ha":1250,"x_min":0,"x_max":1111,"o":"m 0 278 l 278 278 l 278 0 l 0 0 l 0 278 m 417 278 l 694 278 l 694 0 l 417 0 l 417 278 m 833 278 l 1111 278 l 1111 0 l 833 0 l 833 278 z "},"†":{"ha":972,"x_min":0,"x_max":833,"o":"m 0 1042 l 69 1042 l 69 1111 l 278 1111 l 278 1319 l 347 1319 l 347 1389 l 556 1389 l 556 1111 l 764 1111 l 764 1042 l 833 1042 l 833 833 l 556 833 l 556 0 l 278 0 l 278 833 l 0 833 l 0 1042 m 347 1250 l 417 1250 l 417 1319 l 347 1319 l 347 1250 z "},"‡":{"ha":972,"x_min":0,"x_max":833,"o":"m 0 1042 l 69 1042 l 69 1111 l 278 1111 l 278 1319 l 347 1319 l 347 1389 l 556 1389 l 556 1111 l 764 1111 l 764 1042 l 833 1042 l 833 833 l 556 833 l 556 556 l 764 556 l 764 486 l 833 486 l 833 278 l 556 278 l 556 0 l 278 0 l 278 278 l 0 278 l 0 486 l 69 486 l 69 556 l 278 556 l 278 833 l 0 833 l 0 1042 m 347 1250 l 417 1250 l 417 1319 l 347 1319 l 347 1250 z "},"€":{"ha":972,"x_min":0,"x_max":833,"o":"m 0 1319 l 69 1319 l 69 1389 l 764 1389 l 764 1319 l 833 1319 l 833 1111 l 278 1111 l 278 972 l 694 972 l 694 764 l 278 764 l 278 625 l 694 625 l 694 417 l 278 417 l 278 278 l 833 278 l 833 69 l 764 69 l 764 0 l 69 0 l 69 69 l 0 69 l 0 1319 m 69 1250 l 139 1250 l 139 1319 l 69 1319 l 69 1250 z "},"‰":{"ha":1111,"x_min":0,"x_max":972,"o":"m 0 417 l 69 417 l 69 486 l 139 486 l 139 556 l 208 556 l 208 625 l 278 625 l 278 694 l 347 694 l 347 764 l 417 764 l 417 833 l 486 833 l 486 903 l 556 903 l 556 972 l 625 972 l 625 1042 l 694 1042 l 694 1319 l 764 1319 l 764 1389 l 972 1389 l 972 972 l 903 972 l 903 903 l 833 903 l 833 833 l 764 833 l 764 764 l 694 764 l 694 694 l 625 694 l 625 625 l 556 625 l 556 556 l 486 556 l 486 486 l 417 486 l 417 417 l 347 417 l 347 347 l 278 347 l 278 0 l 0 0 l 0 417 m 0 1319 l 69 1319 l 69 1389 l 208 1389 l 208 1319 l 278 1319 l 278 1111 l 208 1111 l 208 1042 l 69 1042 l 69 1111 l 0 1111 l 0 1319 m 347 278 l 417 278 l 417 347 l 556 347 l 556 278 l 625 278 l 625 69 l 556 69 l 556 0 l 417 0 l 417 69 l 347 69 l 347 278 m 694 278 l 764 278 l 764 347 l 903 347 l 903 278 l 972 278 l 972 69 l 903 69 l 903 0 l 764 0 l 764 69 l 694 69 l 694 278 m 764 208 l 833 208 l 833 278 l 764 278 l 764 208 m 69 1250 l 139 1250 l 139 1319 l 69 1319 l 69 1250 m 417 208 l 486 208 l 486 278 l 417 278 l 417 208 m 764 1250 l 833 1250 l 833 1319 l 764 1319 l 764 1250 z "},"Љ":{"ha":1389,"x_min":0,"x_max":1250,"o":"m 0 278 l 139 278 l 139 1319 l 208 1319 l 208 1389 l 764 1389 l 764 1319 l 833 1319 l 833 833 l 1181 833 l 1181 764 l 1250 764 l 1250 69 l 1181 69 l 1181 0 l 556 0 l 556 1111 l 417 1111 l 417 69 l 347 69 l 347 0 l 0 0 l 0 278 m 833 278 l 972 278 l 972 556 l 833 556 l 833 278 m 208 1250 l 278 1250 l 278 1319 l 208 1319 l 208 1250 z "},"‹":{"ha":694,"x_min":0,"x_max":556,"o":"m 0 833 l 69 833 l 69 903 l 139 903 l 139 972 l 208 972 l 208 1042 l 278 1042 l 278 1111 l 347 1111 l 347 1181 l 417 1181 l 417 1250 l 486 1250 l 486 1181 l 556 1181 l 556 972 l 486 972 l 486 903 l 417 903 l 417 833 l 347 833 l 347 764 l 278 764 l 278 625 l 347 625 l 347 556 l 417 556 l 417 486 l 486 486 l 486 417 l 556 417 l 556 208 l 486 208 l 486 139 l 417 139 l 417 208 l 347 208 l 347 278 l 278 278 l 278 347 l 208 347 l 208 417 l 139 417 l 139 486 l 69 486 l 69 556 l 0 556 l 0 833 m 417 1111 l 486 1111 l 486 1181 l 417 1181 l 417 1111 z "},"Њ":{"ha":1250,"x_min":0,"x_max":1111,"o":"m 0 1319 l 69 1319 l 69 1389 l 278 1389 l 278 833 l 417 833 l 417 1389 l 625 1389 l 625 1319 l 694 1319 l 694 833 l 1042 833 l 1042 764 l 1111 764 l 1111 69 l 1042 69 l 1042 0 l 417 0 l 417 556 l 278 556 l 278 0 l 0 0 l 0 1319 m 833 556 l 694 556 l 694 278 l 833 278 l 833 556 m 69 1250 l 139 1250 l 139 1319 l 69 1319 l 69 1250 z "},"Ќ":{"ha":972,"x_min":0,"x_max":833,"o":"m 0 1319 l 69 1319 l 69 1389 l 278 1389 l 278 833 l 417 833 l 417 903 l 486 903 l 486 972 l 556 972 l 556 1319 l 625 1319 l 625 1389 l 833 1389 l 833 903 l 764 903 l 764 833 l 694 833 l 694 764 l 625 764 l 625 625 l 694 625 l 694 556 l 764 556 l 764 486 l 833 486 l 833 0 l 556 0 l 556 417 l 486 417 l 486 486 l 417 486 l 417 556 l 278 556 l 278 0 l 0 0 l 0 1319 m 278 1528 l 347 1528 l 347 1597 l 417 1597 l 417 1667 l 694 1667 l 694 1597 l 625 1597 l 625 1528 l 556 1528 l 556 1458 l 278 1458 l 278 1528 m 69 1250 l 139 1250 l 139 1319 l 69 1319 l 69 1250 z "},"Ћ":{"ha":1111,"x_min":0,"x_max":972,"o":"m 0 1319 l 69 1319 l 69 1389 l 556 1389 l 556 1319 l 625 1319 l 625 1111 l 417 1111 l 417 833 l 903 833 l 903 764 l 972 764 l 972 0 l 694 0 l 694 556 l 417 556 l 417 0 l 139 0 l 139 1111 l 0 1111 l 0 1319 m 69 1250 l 139 1250 l 139 1319 l 69 1319 l 69 1250 z "},"Џ":{"ha":972,"x_min":0,"x_max":833,"o":"m 0 1319 l 69 1319 l 69 1389 l 278 1389 l 278 278 l 556 278 l 556 1389 l 764 1389 l 764 1319 l 833 1319 l 833 69 l 764 69 l 764 0 l 556 0 l 556 -139 l 278 -139 l 278 0 l 69 0 l 69 69 l 0 69 l 0 1319 m 69 1250 l 139 1250 l 139 1319 l 69 1319 l 69 1250 z "},"ђ":{"ha":1111,"x_min":0,"x_max":972,"o":"m 0 1250 l 139 1250 l 139 1389 l 417 1389 l 417 1250 l 556 1250 l 556 1181 l 625 1181 l 625 972 l 417 972 l 417 833 l 903 833 l 903 764 l 972 764 l 972 -208 l 903 -208 l 903 -278 l 556 -278 l 556 0 l 694 0 l 694 556 l 417 556 l 417 0 l 139 0 l 139 972 l 0 972 l 0 1250 z "},"‘":{"ha":417,"x_min":0,"x_max":278,"o":"m 0 1597 l 139 1597 l 139 1389 l 278 1389 l 278 1111 l 69 1111 l 69 1181 l 0 1181 l 0 1597 z "},"’":{"ha":417,"x_min":0,"x_max":278,"o":"m 0 1389 l 208 1389 l 208 1319 l 278 1319 l 278 903 l 139 903 l 139 1111 l 0 1111 l 0 1389 z "},"“":{"ha":833,"x_min":0,"x_max":694,"o":"m 0 1597 l 139 1597 l 139 1389 l 278 1389 l 278 1111 l 69 1111 l 69 1181 l 0 1181 l 0 1597 m 417 1597 l 556 1597 l 556 1389 l 694 1389 l 694 1111 l 486 1111 l 486 1181 l 417 1181 l 417 1597 z "},"”":{"ha":833,"x_min":0,"x_max":694,"o":"m 0 1389 l 208 1389 l 208 1319 l 278 1319 l 278 903 l 139 903 l 139 1111 l 0 1111 l 0 1389 m 417 1389 l 625 1389 l 625 1319 l 694 1319 l 694 903 l 556 903 l 556 1111 l 417 1111 l 417 1389 z "},"•":{"ha":556,"x_min":0,"x_max":417,"o":"m 0 833 l 69 833 l 69 903 l 347 903 l 347 833 l 417 833 l 417 556 l 347 556 l 347 486 l 69 486 l 69 556 l 0 556 l 0 833 z "},"–":{"ha":972,"x_min":0,"x_max":833,"o":"m 0 764 l 69 764 l 69 833 l 764 833 l 764 764 l 833 764 l 833 556 l 0 556 l 0 764 m 69 694 l 139 694 l 139 764 l 69 764 l 69 694 z "},"—":{"ha":1111,"x_min":0,"x_max":972,"o":"m 0 764 l 69 764 l 69 833 l 903 833 l 903 764 l 972 764 l 972 556 l 0 556 l 0 764 m 69 694 l 139 694 l 139 764 l 69 764 l 69 694 z "},"™":{"ha":1042,"x_min":0,"x_max":903,"o":"m 0 1042 l 556 1042 l 556 972 l 625 972 l 625 903 l 694 903 l 694 972 l 764 972 l 764 1042 l 903 1042 l 903 347 l 764 347 l 764 764 l 694 764 l 694 625 l 625 625 l 625 764 l 556 764 l 556 347 l 417 347 l 417 903 l 278 903 l 278 347 l 139 347 l 139 903 l 0 903 l 0 1042 z "},"љ":{"ha":1389,"x_min":0,"x_max":1250,"o":"m 0 278 l 139 278 l 139 1042 l 208 1042 l 208 1111 l 764 1111 l 764 1042 l 833 1042 l 833 694 l 1181 694 l 1181 625 l 1250 625 l 1250 69 l 1181 69 l 1181 0 l 556 0 l 556 833 l 417 833 l 417 69 l 347 69 l 347 0 l 0 0 l 0 278 m 972 417 l 833 417 l 833 278 l 972 278 l 972 417 m 208 972 l 278 972 l 278 1042 l 208 1042 l 208 972 z "},"›":{"ha":694,"x_min":0,"x_max":556,"o":"m 0 1181 l 69 1181 l 69 1250 l 139 1250 l 139 1181 l 208 1181 l 208 1111 l 278 1111 l 278 1042 l 347 1042 l 347 972 l 417 972 l 417 903 l 486 903 l 486 833 l 556 833 l 556 556 l 486 556 l 486 486 l 417 486 l 417 417 l 347 417 l 347 347 l 278 347 l 278 278 l 208 278 l 208 208 l 139 208 l 139 139 l 69 139 l 69 208 l 0 208 l 0 417 l 69 417 l 69 486 l 139 486 l 139 556 l 208 556 l 208 625 l 278 625 l 278 764 l 208 764 l 208 833 l 139 833 l 139 903 l 69 903 l 69 972 l 0 972 l 0 1181 m 69 1111 l 139 1111 l 139 1181 l 69 1181 l 69 1111 z "},"њ":{"ha":1250,"x_min":0,"x_max":1111,"o":"m 0 1042 l 69 1042 l 69 1111 l 278 1111 l 278 694 l 417 694 l 417 1111 l 625 1111 l 625 1042 l 694 1042 l 694 694 l 1042 694 l 1042 625 l 1111 625 l 1111 69 l 1042 69 l 1042 0 l 417 0 l 417 417 l 278 417 l 278 0 l 0 0 l 0 1042 m 694 417 l 694 278 l 833 278 l 833 417 l 694 417 m 69 972 l 139 972 l 139 1042 l 69 1042 l 69 972 z "},"ќ":{"ha":972,"x_min":0,"x_max":833,"o":"m 0 1042 l 69 1042 l 69 1111 l 278 1111 l 278 694 l 417 694 l 417 764 l 486 764 l 486 833 l 556 833 l 556 1111 l 833 1111 l 833 764 l 764 764 l 764 694 l 694 694 l 694 625 l 625 625 l 625 486 l 694 486 l 694 417 l 764 417 l 764 347 l 833 347 l 833 0 l 556 0 l 556 278 l 486 278 l 486 347 l 417 347 l 417 417 l 278 417 l 278 0 l 0 0 l 0 1042 m 278 1250 l 347 1250 l 347 1319 l 417 1319 l 417 1389 l 694 1389 l 694 1319 l 625 1319 l 625 1250 l 556 1250 l 556 1181 l 278 1181 l 278 1250 m 69 972 l 139 972 l 139 1042 l 69 1042 l 69 972 z "},"ћ":{"ha":1111,"x_min":0,"x_max":972,"o":"m 0 1250 l 139 1250 l 139 1389 l 417 1389 l 417 1250 l 556 1250 l 556 1181 l 625 1181 l 625 972 l 417 972 l 417 833 l 903 833 l 903 764 l 972 764 l 972 0 l 694 0 l 694 556 l 417 556 l 417 0 l 139 0 l 139 972 l 0 972 l 0 1250 z "},"џ":{"ha":972,"x_min":0,"x_max":833,"o":"m 0 1042 l 69 1042 l 69 1111 l 278 1111 l 278 278 l 556 278 l 556 1111 l 764 1111 l 764 1042 l 833 1042 l 833 69 l 764 69 l 764 0 l 556 0 l 556 -139 l 278 -139 l 278 0 l 69 0 l 69 69 l 0 69 l 0 1042 m 69 972 l 139 972 l 139 1042 l 69 1042 l 69 972 z "},"Ў":{"ha":972,"x_min":0,"x_max":833,"o":"m 0 1319 l 69 1319 l 69 1389 l 278 1389 l 278 972 l 347 972 l 347 903 l 486 903 l 486 972 l 556 972 l 556 1389 l 764 1389 l 764 1319 l 833 1319 l 833 903 l 764 903 l 764 833 l 694 833 l 694 764 l 625 764 l 625 694 l 556 694 l 556 0 l 278 0 l 278 694 l 208 694 l 208 764 l 139 764 l 139 833 l 69 833 l 69 903 l 0 903 l 0 1319 m 69 1250 l 139 1250 l 139 1319 l 69 1319 l 69 1250 m 139 1667 l 347 1667 l 347 1597 l 486 1597 l 486 1667 l 694 1667 l 694 1597 l 625 1597 l 625 1528 l 556 1528 l 556 1458 l 278 1458 l 278 1528 l 208 1528 l 208 1597 l 139 1597 l 139 1667 z "},"ў":{"ha":972,"x_min":0,"x_max":833,"o":"m 0 1042 l 69 1042 l 69 1111 l 278 1111 l 278 278 l 556 278 l 556 1111 l 764 1111 l 764 1042 l 833 1042 l 833 -347 l 764 -347 l 764 -417 l 208 -417 l 208 -347 l 139 -347 l 139 -139 l 556 -139 l 556 0 l 69 0 l 69 69 l 0 69 l 0 1042 m 69 972 l 139 972 l 139 1042 l 69 1042 l 69 972 m 139 1389 l 347 1389 l 347 1319 l 486 1319 l 486 1389 l 694 1389 l 694 1319 l 625 1319 l 625 1250 l 556 1250 l 556 1181 l 278 1181 l 278 1250 l 208 1250 l 208 1319 l 139 1319 l 139 1389 z "},"Ј":{"ha":972,"x_min":0,"x_max":833,"o":"m 0 1319 l 69 1319 l 69 1389 l 833 1389 l 833 69 l 764 69 l 764 0 l 69 0 l 69 69 l 0 69 l 0 556 l 278 556 l 278 278 l 556 278 l 556 1111 l 278 1111 l 278 972 l 0 972 l 0 1319 m 69 1250 l 139 1250 l 139 1319 l 69 1319 l 69 1250 z "},"¤":{"ha":833,"x_min":0,"x_max":694,"o":"m 0 1042 l 139 1042 l 139 972 l 208 972 l 208 903 l 486 903 l 486 972 l 556 972 l 556 1042 l 694 1042 l 694 903 l 625 903 l 625 833 l 556 833 l 556 556 l 625 556 l 625 486 l 694 486 l 694 347 l 556 347 l 556 417 l 486 417 l 486 486 l 208 486 l 208 417 l 139 417 l 139 347 l 0 347 l 0 486 l 69 486 l 69 556 l 139 556 l 139 833 l 69 833 l 69 903 l 0 903 l 0 1042 m 278 625 l 417 625 l 417 764 l 278 764 l 278 625 z "},"Ґ":{"ha":972,"x_min":0,"x_max":833,"o":"m 0 1319 l 69 1319 l 69 1389 l 556 1389 l 556 1528 l 833 1528 l 833 1181 l 764 1181 l 764 1111 l 278 1111 l 278 0 l 0 0 l 0 1319 m 69 1250 l 139 1250 l 139 1319 l 69 1319 l 69 1250 z "},"¦":{"ha":417,"x_min":0,"x_max":278,"o":"m 0 625 l 278 625 l 278 0 l 0 0 l 0 625 m 0 1319 l 69 1319 l 69 1389 l 278 1389 l 278 764 l 0 764 l 0 1319 m 69 1250 l 139 1250 l 139 1319 l 69 1319 l 69 1250 z "},"§":{"ha":972,"x_min":0,"x_max":833,"o":"m 0 1319 l 69 1319 l 69 1389 l 764 1389 l 764 1319 l 833 1319 l 833 1111 l 278 1111 l 278 972 l 764 972 l 764 903 l 833 903 l 833 69 l 764 69 l 764 0 l 69 0 l 69 69 l 0 69 l 0 278 l 556 278 l 556 417 l 69 417 l 69 486 l 0 486 l 0 1319 m 556 764 l 278 764 l 278 625 l 556 625 l 556 764 m 69 1250 l 139 1250 l 139 1319 l 69 1319 l 69 1250 z "},"Ё":{"ha":972,"x_min":0,"x_max":833,"o":"m 0 1319 l 69 1319 l 69 1389 l 833 1389 l 833 1111 l 278 1111 l 278 833 l 764 833 l 764 556 l 278 556 l 278 278 l 833 278 l 833 0 l 69 0 l 69 69 l 0 69 l 0 1319 m 139 1597 l 208 1597 l 208 1667 l 417 1667 l 417 1458 l 139 1458 l 139 1597 m 556 1597 l 625 1597 l 625 1667 l 833 1667 l 833 1458 l 556 1458 l 556 1597 m 69 1250 l 139 1250 l 139 1319 l 69 1319 l 69 1250 z "},"©":{"ha":1111,"x_min":0,"x_max":972,"o":"m 0 1319 l 69 1319 l 69 1389 l 903 1389 l 903 1319 l 972 1319 l 972 69 l 903 69 l 903 0 l 69 0 l 69 69 l 0 69 l 0 1319 m 278 278 l 694 278 l 694 1111 l 278 1111 l 278 278 m 347 903 l 625 903 l 625 764 l 556 764 l 556 833 l 417 833 l 417 556 l 556 556 l 556 625 l 625 625 l 625 486 l 347 486 l 347 903 m 69 1250 l 139 1250 l 139 1319 l 69 1319 l 69 1250 z "},"Є":{"ha":972,"x_min":0,"x_max":833,"o":"m 0 1319 l 69 1319 l 69 1389 l 764 1389 l 764 1319 l 833 1319 l 833 972 l 556 972 l 556 1111 l 278 1111 l 278 833 l 556 833 l 556 556 l 278 556 l 278 278 l 556 278 l 556 417 l 833 417 l 833 69 l 764 69 l 764 0 l 69 0 l 69 69 l 0 69 l 0 1319 m 69 1250 l 139 1250 l 139 1319 l 69 1319 l 69 1250 z "},"«":{"ha":1111,"x_min":0,"x_max":972,"o":"m 0 833 l 69 833 l 69 903 l 139 903 l 139 972 l 208 972 l 208 1042 l 278 1042 l 278 1111 l 347 1111 l 347 1181 l 417 1181 l 417 1250 l 486 1250 l 486 1181 l 556 1181 l 556 1042 l 486 1042 l 486 972 l 417 972 l 417 903 l 347 903 l 347 833 l 278 833 l 278 764 l 208 764 l 208 625 l 278 625 l 278 556 l 347 556 l 347 486 l 417 486 l 417 417 l 486 417 l 486 347 l 556 347 l 556 208 l 486 208 l 486 139 l 417 139 l 417 208 l 347 208 l 347 278 l 278 278 l 278 347 l 208 347 l 208 417 l 139 417 l 139 486 l 69 486 l 69 556 l 0 556 l 0 833 m 417 833 l 486 833 l 486 903 l 556 903 l 556 972 l 625 972 l 625 1042 l 694 1042 l 694 1111 l 764 1111 l 764 1181 l 833 1181 l 833 1250 l 903 1250 l 903 1181 l 972 1181 l 972 1042 l 903 1042 l 903 972 l 833 972 l 833 903 l 764 903 l 764 833 l 694 833 l 694 764 l 625 764 l 625 625 l 694 625 l 694 556 l 764 556 l 764 486 l 833 486 l 833 417 l 903 417 l 903 347 l 972 347 l 972 208 l 903 208 l 903 139 l 833 139 l 833 208 l 764 208 l 764 278 l 694 278 l 694 347 l 625 347 l 625 417 l 556 417 l 556 486 l 486 486 l 486 556 l 417 556 l 417 833 m 417 1111 l 486 1111 l 486 1181 l 417 1181 l 417 1111 m 833 1111 l 903 1111 l 903 1181 l 833 1181 l 833 1111 z "},"¬":{"ha":972,"x_min":0,"x_max":833,"o":"m 0 1319 l 69 1319 l 69 1389 l 764 1389 l 764 1319 l 833 1319 l 833 903 l 556 903 l 556 1111 l 0 1111 l 0 1319 m 69 1250 l 139 1250 l 139 1319 l 69 1319 l 69 1250 z "},"­":{"ha":972,"x_min":0,"x_max":833,"o":"m 0 764 l 69 764 l 69 833 l 764 833 l 764 764 l 833 764 l 833 556 l 0 556 l 0 764 m 69 694 l 139 694 l 139 764 l 69 764 l 69 694 z "},"®":{"ha":1111,"x_min":0,"x_max":972,"o":"m 0 1319 l 69 1319 l 69 1389 l 903 1389 l 903 1319 l 972 1319 l 972 69 l 903 69 l 903 0 l 69 0 l 69 69 l 0 69 l 0 1319 m 278 278 l 694 278 l 694 1111 l 278 1111 l 278 278 m 347 903 l 625 903 l 625 694 l 556 694 l 556 625 l 625 625 l 625 486 l 556 486 l 556 625 l 417 625 l 417 486 l 347 486 l 347 903 m 417 694 l 556 694 l 556 833 l 417 833 l 417 694 m 69 1250 l 139 1250 l 139 1319 l 69 1319 l 69 1250 z "},"Ї":{"ha":972,"x_min":0,"x_max":833,"o":"m 0 1319 l 69 1319 l 69 1389 l 764 1389 l 764 1319 l 833 1319 l 833 1111 l 556 1111 l 556 278 l 833 278 l 833 0 l 0 0 l 0 278 l 278 278 l 278 1111 l 0 1111 l 0 1319 m 486 1597 l 556 1597 l 556 1667 l 764 1667 l 764 1458 l 486 1458 l 486 1597 m 69 1597 l 139 1597 l 139 1667 l 347 1667 l 347 1458 l 69 1458 l 69 1597 m 69 1250 l 139 1250 l 139 1319 l 69 1319 l 69 1250 z "},"°":{"ha":556,"x_min":0,"x_max":417,"o":"m 0 1319 l 69 1319 l 69 1389 l 347 1389 l 347 1319 l 417 1319 l 417 1042 l 347 1042 l 347 972 l 69 972 l 69 1042 l 0 1042 l 0 1319 m 139 1111 l 278 1111 l 278 1250 l 139 1250 l 139 1111 z "},"±":{"ha":972,"x_min":0,"x_max":833,"o":"m 0 903 l 69 903 l 69 972 l 278 972 l 278 1250 l 556 1250 l 556 972 l 764 972 l 764 903 l 833 903 l 833 694 l 556 694 l 556 417 l 278 417 l 278 694 l 0 694 l 0 903 m 0 208 l 69 208 l 69 278 l 764 278 l 764 208 l 833 208 l 833 0 l 0 0 l 0 208 m 69 139 l 139 139 l 139 208 l 69 208 l 69 139 m 69 833 l 139 833 l 139 903 l 69 903 l 69 833 z "},"І":{"ha":972,"x_min":0,"x_max":833,"o":"m 0 1319 l 69 1319 l 69 1389 l 764 1389 l 764 1319 l 833 1319 l 833 1111 l 556 1111 l 556 278 l 833 278 l 833 0 l 0 0 l 0 278 l 278 278 l 278 1111 l 0 1111 l 0 1319 m 69 1250 l 139 1250 l 139 1319 l 69 1319 l 69 1250 z "},"і":{"ha":694,"x_min":0,"x_max":556,"o":"m 0 1042 l 69 1042 l 69 1111 l 486 1111 l 486 1042 l 556 1042 l 556 833 l 417 833 l 417 278 l 556 278 l 556 0 l 0 0 l 0 278 l 139 278 l 139 833 l 0 833 l 0 1042 m 139 1319 l 208 1319 l 208 1389 l 417 1389 l 417 1181 l 139 1181 l 139 1319 m 69 972 l 139 972 l 139 1042 l 69 1042 l 69 972 z "},"ґ":{"ha":972,"x_min":0,"x_max":833,"o":"m 0 1042 l 69 1042 l 69 1111 l 556 1111 l 556 1250 l 833 1250 l 833 903 l 764 903 l 764 833 l 278 833 l 278 0 l 0 0 l 0 1042 m 69 972 l 139 972 l 139 1042 l 69 1042 l 69 972 z "},"µ":{"ha":1111,"x_min":0,"x_max":972,"o":"m 0 1319 l 69 1319 l 69 1389 l 278 1389 l 278 694 l 347 694 l 347 625 l 417 625 l 417 556 l 556 556 l 556 625 l 625 625 l 625 694 l 694 694 l 694 1389 l 903 1389 l 903 1319 l 972 1319 l 972 0 l 694 0 l 694 347 l 625 347 l 625 278 l 556 278 l 556 0 l 417 0 l 417 278 l 347 278 l 347 347 l 278 347 l 278 -69 l 208 -69 l 208 -139 l 0 -139 l 0 1319 m 69 1250 l 139 1250 l 139 1319 l 69 1319 l 69 1250 z "},"¶":{"ha":1111,"x_min":0,"x_max":972,"o":"m 0 1319 l 69 1319 l 69 1389 l 903 1389 l 903 1319 l 972 1319 l 972 1111 l 833 1111 l 833 0 l 556 0 l 556 1111 l 417 1111 l 417 0 l 139 0 l 139 972 l 69 972 l 69 1042 l 0 1042 l 0 1319 m 69 1250 l 139 1250 l 139 1319 l 69 1319 l 69 1250 z "},"·":{"ha":417,"x_min":0,"x_max":278,"o":"m 0 833 l 278 833 l 278 556 l 0 556 l 0 833 z "},"ё":{"ha":972,"x_min":0,"x_max":833,"o":"m 0 1042 l 69 1042 l 69 1111 l 764 1111 l 764 1042 l 833 1042 l 833 486 l 764 486 l 764 417 l 278 417 l 278 278 l 833 278 l 833 0 l 69 0 l 69 69 l 0 69 l 0 1042 m 486 1319 l 556 1319 l 556 1389 l 764 1389 l 764 1181 l 486 1181 l 486 1319 m 69 1319 l 139 1319 l 139 1389 l 347 1389 l 347 1181 l 69 1181 l 69 1319 m 278 694 l 556 694 l 556 833 l 278 833 l 278 694 m 69 972 l 139 972 l 139 1042 l 69 1042 l 69 972 z "},"№":{"ha":1319,"x_min":0,"x_max":1181,"o":"m 0 1319 l 69 1319 l 69 1389 l 278 1389 l 278 972 l 347 972 l 347 903 l 417 903 l 417 833 l 486 833 l 486 764 l 556 764 l 556 1389 l 764 1389 l 764 1319 l 833 1319 l 833 0 l 556 0 l 556 417 l 486 417 l 486 486 l 417 486 l 417 556 l 347 556 l 347 625 l 278 625 l 278 0 l 0 0 l 0 1319 m 903 1389 l 1111 1389 l 1111 1319 l 1181 1319 l 1181 1111 l 903 1111 l 903 1389 m 903 1042 l 1181 1042 l 1181 903 l 903 903 l 903 1042 m 69 1250 l 139 1250 l 139 1319 l 69 1319 l 69 1250 z "},"є":{"ha":972,"x_min":0,"x_max":833,"o":"m 0 1042 l 69 1042 l 69 1111 l 764 1111 l 764 1042 l 833 1042 l 833 833 l 278 833 l 278 694 l 556 694 l 556 417 l 278 417 l 278 278 l 833 278 l 833 69 l 764 69 l 764 0 l 69 0 l 69 69 l 0 69 l 0 1042 m 69 972 l 139 972 l 139 1042 l 69 1042 l 69 972 z "},"»":{"ha":1111,"x_min":0,"x_max":972,"o":"m 0 1181 l 69 1181 l 69 1250 l 139 1250 l 139 1181 l 208 1181 l 208 1111 l 278 1111 l 278 1042 l 347 1042 l 347 972 l 417 972 l 417 903 l 486 903 l 486 833 l 556 833 l 556 556 l 486 556 l 486 486 l 417 486 l 417 417 l 347 417 l 347 347 l 278 347 l 278 278 l 208 278 l 208 208 l 139 208 l 139 139 l 69 139 l 69 208 l 0 208 l 0 347 l 69 347 l 69 417 l 139 417 l 139 486 l 208 486 l 208 556 l 278 556 l 278 625 l 347 625 l 347 764 l 278 764 l 278 833 l 208 833 l 208 903 l 139 903 l 139 972 l 69 972 l 69 1042 l 0 1042 l 0 1181 m 417 1181 l 486 1181 l 486 1250 l 556 1250 l 556 1181 l 625 1181 l 625 1111 l 694 1111 l 694 1042 l 764 1042 l 764 972 l 833 972 l 833 903 l 903 903 l 903 833 l 972 833 l 972 556 l 903 556 l 903 486 l 833 486 l 833 417 l 764 417 l 764 347 l 694 347 l 694 278 l 625 278 l 625 208 l 556 208 l 556 139 l 486 139 l 486 208 l 417 208 l 417 347 l 486 347 l 486 417 l 556 417 l 556 486 l 625 486 l 625 556 l 694 556 l 694 625 l 764 625 l 764 764 l 694 764 l 694 833 l 625 833 l 625 903 l 556 903 l 556 972 l 486 972 l 486 1042 l 417 1042 l 417 1181 m 69 1111 l 139 1111 l 139 1181 l 69 1181 l 69 1111 m 486 1111 l 556 1111 l 556 1181 l 486 1181 l 486 1111 z "},"ј":{"ha":694,"x_min":0,"x_max":556,"o":"m 0 -139 l 278 -139 l 278 1042 l 347 1042 l 347 1111 l 556 1111 l 556 -347 l 486 -347 l 486 -417 l 69 -417 l 69 -347 l 0 -347 l 0 -139 m 278 1319 l 347 1319 l 347 1389 l 556 1389 l 556 1181 l 278 1181 l 278 1319 m 347 972 l 417 972 l 417 1042 l 347 1042 l 347 972 z "},"Ѕ":{"ha":972,"x_min":0,"x_max":833,"o":"m 0 1319 l 69 1319 l 69 1389 l 764 1389 l 764 1319 l 833 1319 l 833 972 l 556 972 l 556 1111 l 278 1111 l 278 833 l 764 833 l 764 764 l 833 764 l 833 69 l 764 69 l 764 0 l 69 0 l 69 69 l 0 69 l 0 417 l 278 417 l 278 278 l 556 278 l 556 556 l 69 556 l 69 625 l 0 625 l 0 1319 m 69 1250 l 139 1250 l 139 1319 l 69 1319 l 69 1250 z "},"ѕ":{"ha":972,"x_min":0,"x_max":833,"o":"m 0 1042 l 69 1042 l 69 1111 l 764 1111 l 764 1042 l 833 1042 l 833 833 l 278 833 l 278 694 l 764 694 l 764 625 l 833 625 l 833 69 l 764 69 l 764 0 l 69 0 l 69 69 l 0 69 l 0 278 l 556 278 l 556 417 l 69 417 l 69 486 l 0 486 l 0 1042 m 69 972 l 139 972 l 139 1042 l 69 1042 l 69 972 z "},"ї":{"ha":833,"x_min":0,"x_max":694,"o":"m 69 1042 l 139 1042 l 139 1111 l 556 1111 l 556 1042 l 625 1042 l 625 833 l 486 833 l 486 278 l 625 278 l 625 0 l 69 0 l 69 278 l 208 278 l 208 833 l 69 833 l 69 1042 m 0 1319 l 69 1319 l 69 1389 l 278 1389 l 278 1181 l 0 1181 l 0 1319 m 417 1319 l 486 1319 l 486 1389 l 694 1389 l 694 1181 l 417 1181 l 417 1319 m 139 972 l 208 972 l 208 1042 l 139 1042 l 139 972 z "},"А":{"ha":972,"x_min":0,"x_max":833,"o":"m 0 1319 l 69 1319 l 69 1389 l 764 1389 l 764 1319 l 833 1319 l 833 0 l 556 0 l 556 556 l 278 556 l 278 0 l 0 0 l 0 1319 m 278 833 l 556 833 l 556 1111 l 278 1111 l 278 833 m 69 1250 l 139 1250 l 139 1319 l 69 1319 l 69 1250 z "},"Б":{"ha":972,"x_min":0,"x_max":833,"o":"m 0 1319 l 69 1319 l 69 1389 l 833 1389 l 833 1111 l 278 1111 l 278 833 l 764 833 l 764 764 l 833 764 l 833 69 l 764 69 l 764 0 l 0 0 l 0 1319 m 278 278 l 556 278 l 556 556 l 278 556 l 278 278 m 69 1250 l 139 1250 l 139 1319 l 69 1319 l 69 1250 z "},"В":{"ha":972,"x_min":0,"x_max":833,"o":"m 0 1319 l 69 1319 l 69 1389 l 764 1389 l 764 1319 l 833 1319 l 833 833 l 764 833 l 764 556 l 833 556 l 833 69 l 764 69 l 764 0 l 0 0 l 0 1319 m 278 278 l 556 278 l 556 556 l 278 556 l 278 278 m 278 833 l 556 833 l 556 1111 l 278 1111 l 278 833 m 69 1250 l 139 1250 l 139 1319 l 69 1319 l 69 1250 z "},"Г":{"ha":972,"x_min":0,"x_max":833,"o":"m 0 1319 l 69 1319 l 69 1389 l 764 1389 l 764 1319 l 833 1319 l 833 1111 l 278 1111 l 278 0 l 0 0 l 0 1319 m 69 1250 l 139 1250 l 139 1319 l 69 1319 l 69 1250 z "},"Д":{"ha":1111,"x_min":0,"x_max":972,"o":"m 0 208 l 69 208 l 69 278 l 139 278 l 139 1319 l 208 1319 l 208 1389 l 833 1389 l 833 278 l 903 278 l 903 208 l 972 208 l 972 -139 l 694 -139 l 694 0 l 278 0 l 278 -139 l 0 -139 l 0 208 m 556 1111 l 417 1111 l 417 278 l 556 278 l 556 1111 m 208 1250 l 278 1250 l 278 1319 l 208 1319 l 208 1250 z "},"Е":{"ha":972,"x_min":0,"x_max":833,"o":"m 0 1319 l 69 1319 l 69 1389 l 764 1389 l 764 1319 l 833 1319 l 833 1111 l 278 1111 l 278 833 l 694 833 l 694 556 l 278 556 l 278 278 l 833 278 l 833 69 l 764 69 l 764 0 l 69 0 l 69 69 l 0 69 l 0 1319 m 69 1250 l 139 1250 l 139 1319 l 69 1319 l 69 1250 z "},"Ж":{"ha":1111,"x_min":0,"x_max":972,"o":"m 0 1319 l 69 1319 l 69 1389 l 278 1389 l 278 833 l 417 833 l 417 1389 l 556 1389 l 556 833 l 694 833 l 694 1389 l 903 1389 l 903 1319 l 972 1319 l 972 833 l 903 833 l 903 556 l 972 556 l 972 0 l 694 0 l 694 556 l 556 556 l 556 0 l 417 0 l 417 556 l 278 556 l 278 0 l 0 0 l 0 556 l 69 556 l 69 833 l 0 833 l 0 1319 m 69 1250 l 139 1250 l 139 1319 l 69 1319 l 69 1250 z "},"З":{"ha":972,"x_min":0,"x_max":833,"o":"m 0 1319 l 69 1319 l 69 1389 l 764 1389 l 764 1319 l 833 1319 l 833 833 l 764 833 l 764 556 l 833 556 l 833 69 l 764 69 l 764 0 l 69 0 l 69 69 l 0 69 l 0 417 l 278 417 l 278 278 l 556 278 l 556 556 l 278 556 l 278 833 l 556 833 l 556 1111 l 278 1111 l 278 972 l 0 972 l 0 1319 m 69 1250 l 139 1250 l 139 1319 l 69 1319 l 69 1250 z "},"И":{"ha":972,"x_min":0,"x_max":833,"o":"m 0 1319 l 69 1319 l 69 1389 l 278 1389 l 278 764 l 347 764 l 347 833 l 417 833 l 417 903 l 486 903 l 486 972 l 556 972 l 556 1389 l 764 1389 l 764 1319 l 833 1319 l 833 0 l 556 0 l 556 625 l 486 625 l 486 556 l 417 556 l 417 486 l 347 486 l 347 417 l 278 417 l 278 0 l 0 0 l 0 1319 m 69 1250 l 139 1250 l 139 1319 l 69 1319 l 69 1250 z "},"Й":{"ha":972,"x_min":0,"x_max":833,"o":"m 0 1319 l 69 1319 l 69 1389 l 278 1389 l 278 764 l 347 764 l 347 833 l 417 833 l 417 903 l 486 903 l 486 972 l 556 972 l 556 1389 l 764 1389 l 764 1319 l 833 1319 l 833 0 l 556 0 l 556 625 l 486 625 l 486 556 l 417 556 l 417 486 l 347 486 l 347 417 l 278 417 l 278 0 l 0 0 l 0 1319 m 69 1250 l 139 1250 l 139 1319 l 69 1319 l 69 1250 m 139 1667 l 347 1667 l 347 1597 l 486 1597 l 486 1667 l 694 1667 l 694 1597 l 625 1597 l 625 1528 l 556 1528 l 556 1458 l 278 1458 l 278 1528 l 208 1528 l 208 1597 l 139 1597 l 139 1667 z "},"К":{"ha":972,"x_min":0,"x_max":833,"o":"m 0 1319 l 69 1319 l 69 1389 l 278 1389 l 278 833 l 417 833 l 417 903 l 486 903 l 486 972 l 556 972 l 556 1389 l 764 1389 l 764 1319 l 833 1319 l 833 903 l 764 903 l 764 833 l 694 833 l 694 764 l 625 764 l 625 625 l 694 625 l 694 556 l 764 556 l 764 486 l 833 486 l 833 0 l 556 0 l 556 417 l 486 417 l 486 486 l 417 486 l 417 556 l 278 556 l 278 0 l 0 0 l 0 1319 m 69 1250 l 139 1250 l 139 1319 l 69 1319 l 69 1250 z "},"Л":{"ha":972,"x_min":0,"x_max":833,"o":"m 0 1181 l 69 1181 l 69 1250 l 139 1250 l 139 1319 l 208 1319 l 208 1389 l 764 1389 l 764 1319 l 833 1319 l 833 0 l 556 0 l 556 1111 l 347 1111 l 347 1042 l 278 1042 l 278 69 l 208 69 l 208 0 l 0 0 l 0 1181 m 208 1250 l 278 1250 l 278 1319 l 208 1319 l 208 1250 z "},"М":{"ha":1111,"x_min":0,"x_max":972,"o":"m 0 1319 l 69 1319 l 69 1389 l 278 1389 l 278 1111 l 347 1111 l 347 1042 l 417 1042 l 417 972 l 556 972 l 556 1042 l 625 1042 l 625 1111 l 694 1111 l 694 1389 l 903 1389 l 903 1319 l 972 1319 l 972 0 l 694 0 l 694 764 l 625 764 l 625 694 l 556 694 l 556 417 l 417 417 l 417 694 l 347 694 l 347 764 l 278 764 l 278 0 l 0 0 l 0 1319 m 69 1250 l 139 1250 l 139 1319 l 69 1319 l 69 1250 z "},"Н":{"ha":972,"x_min":0,"x_max":833,"o":"m 0 1319 l 69 1319 l 69 1389 l 278 1389 l 278 833 l 556 833 l 556 1389 l 764 1389 l 764 1319 l 833 1319 l 833 0 l 556 0 l 556 556 l 278 556 l 278 0 l 0 0 l 0 1319 m 69 1250 l 139 1250 l 139 1319 l 69 1319 l 69 1250 z "},"О":{"ha":972,"x_min":0,"x_max":833,"o":"m 0 1319 l 69 1319 l 69 1389 l 764 1389 l 764 1319 l 833 1319 l 833 69 l 764 69 l 764 0 l 69 0 l 69 69 l 0 69 l 0 1319 m 278 278 l 556 278 l 556 1111 l 278 1111 l 278 278 m 69 1250 l 139 1250 l 139 1319 l 69 1319 l 69 1250 z "},"П":{"ha":972,"x_min":0,"x_max":833,"o":"m 0 1319 l 69 1319 l 69 1389 l 764 1389 l 764 1319 l 833 1319 l 833 0 l 556 0 l 556 1111 l 278 1111 l 278 0 l 0 0 l 0 1319 m 69 1250 l 139 1250 l 139 1319 l 69 1319 l 69 1250 z "},"Р":{"ha":972,"x_min":0,"x_max":833,"o":"m 0 1319 l 69 1319 l 69 1389 l 764 1389 l 764 1319 l 833 1319 l 833 625 l 764 625 l 764 556 l 278 556 l 278 0 l 0 0 l 0 1319 m 278 833 l 556 833 l 556 1111 l 278 1111 l 278 833 m 69 1250 l 139 1250 l 139 1319 l 69 1319 l 69 1250 z "},"С":{"ha":972,"x_min":0,"x_max":833,"o":"m 0 1319 l 69 1319 l 69 1389 l 764 1389 l 764 1319 l 833 1319 l 833 972 l 556 972 l 556 1111 l 278 1111 l 278 278 l 556 278 l 556 417 l 833 417 l 833 69 l 764 69 l 764 0 l 69 0 l 69 69 l 0 69 l 0 1319 m 69 1250 l 139 1250 l 139 1319 l 69 1319 l 69 1250 z "},"Т":{"ha":972,"x_min":0,"x_max":833,"o":"m 0 1319 l 69 1319 l 69 1389 l 764 1389 l 764 1319 l 833 1319 l 833 1111 l 556 1111 l 556 0 l 278 0 l 278 1111 l 0 1111 l 0 1319 m 69 1250 l 139 1250 l 139 1319 l 69 1319 l 69 1250 z "},"У":{"ha":972,"x_min":0,"x_max":833,"o":"m 0 1319 l 69 1319 l 69 1389 l 278 1389 l 278 833 l 556 833 l 556 1389 l 833 1389 l 833 69 l 764 69 l 764 0 l 69 0 l 69 69 l 0 69 l 0 417 l 278 417 l 278 278 l 556 278 l 556 556 l 69 556 l 69 625 l 0 625 l 0 1319 m 69 1250 l 139 1250 l 139 1319 l 69 1319 l 69 1250 z "},"Ф":{"ha":1111,"x_min":0,"x_max":972,"o":"m 0 1319 l 69 1319 l 69 1389 l 903 1389 l 903 1319 l 972 1319 l 972 347 l 903 347 l 903 278 l 556 278 l 556 0 l 417 0 l 417 278 l 69 278 l 69 347 l 0 347 l 0 1319 m 694 1111 l 556 1111 l 556 556 l 694 556 l 694 1111 m 278 556 l 417 556 l 417 1111 l 278 1111 l 278 556 m 69 1250 l 139 1250 l 139 1319 l 69 1319 l 69 1250 z "},"Х":{"ha":972,"x_min":0,"x_max":833,"o":"m 0 1319 l 69 1319 l 69 1389 l 278 1389 l 278 972 l 347 972 l 347 903 l 486 903 l 486 972 l 556 972 l 556 1389 l 764 1389 l 764 1319 l 833 1319 l 833 903 l 764 903 l 764 833 l 694 833 l 694 764 l 625 764 l 625 625 l 694 625 l 694 556 l 764 556 l 764 486 l 833 486 l 833 0 l 556 0 l 556 417 l 486 417 l 486 486 l 347 486 l 347 417 l 278 417 l 278 0 l 0 0 l 0 486 l 69 486 l 69 556 l 139 556 l 139 625 l 208 625 l 208 764 l 139 764 l 139 833 l 69 833 l 69 903 l 0 903 l 0 1319 m 69 1250 l 139 1250 l 139 1319 l 69 1319 l 69 1250 z "},"Ц":{"ha":1111,"x_min":0,"x_max":972,"o":"m 0 1319 l 69 1319 l 69 1389 l 278 1389 l 278 278 l 556 278 l 556 1389 l 833 1389 l 833 278 l 903 278 l 903 208 l 972 208 l 972 -139 l 694 -139 l 694 0 l 69 0 l 69 69 l 0 69 l 0 1319 m 69 1250 l 139 1250 l 139 1319 l 69 1319 l 69 1250 z "},"Ч":{"ha":972,"x_min":0,"x_max":833,"o":"m 0 1319 l 69 1319 l 69 1389 l 278 1389 l 278 833 l 556 833 l 556 1389 l 833 1389 l 833 0 l 556 0 l 556 556 l 69 556 l 69 625 l 0 625 l 0 1319 m 69 1250 l 139 1250 l 139 1319 l 69 1319 l 69 1250 z "},"Ш":{"ha":1111,"x_min":0,"x_max":972,"o":"m 0 1319 l 69 1319 l 69 1389 l 278 1389 l 278 278 l 417 278 l 417 1111 l 556 1111 l 556 278 l 694 278 l 694 1389 l 903 1389 l 903 1319 l 972 1319 l 972 0 l 0 0 l 0 1319 m 69 1250 l 139 1250 l 139 1319 l 69 1319 l 69 1250 z "},"Щ":{"ha":1250,"x_min":0,"x_max":1111,"o":"m 0 1319 l 69 1319 l 69 1389 l 278 1389 l 278 278 l 417 278 l 417 1111 l 556 1111 l 556 278 l 694 278 l 694 1389 l 903 1389 l 903 1319 l 972 1319 l 972 278 l 1042 278 l 1042 208 l 1111 208 l 1111 -139 l 833 -139 l 833 0 l 0 0 l 0 1319 m 69 1250 l 139 1250 l 139 1319 l 69 1319 l 69 1250 z "},"Ъ":{"ha":1111,"x_min":0,"x_max":972,"o":"m 0 1319 l 69 1319 l 69 1389 l 417 1389 l 417 833 l 903 833 l 903 764 l 972 764 l 972 69 l 903 69 l 903 0 l 208 0 l 208 69 l 139 69 l 139 1111 l 0 1111 l 0 1319 m 417 278 l 694 278 l 694 556 l 417 556 l 417 278 m 69 1250 l 139 1250 l 139 1319 l 69 1319 l 69 1250 z "},"Ы":{"ha":1389,"x_min":0,"x_max":1250,"o":"m 0 1319 l 69 1319 l 69 1389 l 278 1389 l 278 833 l 764 833 l 764 764 l 833 764 l 833 69 l 764 69 l 764 0 l 69 0 l 69 69 l 0 69 l 0 1319 m 972 1319 l 1042 1319 l 1042 1389 l 1250 1389 l 1250 0 l 972 0 l 972 1319 m 278 278 l 556 278 l 556 556 l 278 556 l 278 278 m 69 1250 l 139 1250 l 139 1319 l 69 1319 l 69 1250 m 1042 1250 l 1111 1250 l 1111 1319 l 1042 1319 l 1042 1250 z "},"Ь":{"ha":972,"x_min":0,"x_max":833,"o":"m 0 1319 l 69 1319 l 69 1389 l 278 1389 l 278 833 l 764 833 l 764 764 l 833 764 l 833 69 l 764 69 l 764 0 l 69 0 l 69 69 l 0 69 l 0 1319 m 278 278 l 556 278 l 556 556 l 278 556 l 278 278 m 69 1250 l 139 1250 l 139 1319 l 69 1319 l 69 1250 z "},"Э":{"ha":972,"x_min":0,"x_max":833,"o":"m 0 1319 l 69 1319 l 69 1389 l 764 1389 l 764 1319 l 833 1319 l 833 69 l 764 69 l 764 0 l 69 0 l 69 69 l 0 69 l 0 417 l 278 417 l 278 278 l 556 278 l 556 556 l 278 556 l 278 833 l 556 833 l 556 1111 l 278 1111 l 278 972 l 0 972 l 0 1319 m 69 1250 l 139 1250 l 139 1319 l 69 1319 l 69 1250 z "},"Ю":{"ha":1250,"x_min":0,"x_max":1111,"o":"m 0 1319 l 69 1319 l 69 1389 l 278 1389 l 278 833 l 417 833 l 417 1319 l 486 1319 l 486 1389 l 1042 1389 l 1042 1319 l 1111 1319 l 1111 0 l 417 0 l 417 556 l 278 556 l 278 0 l 0 0 l 0 1319 m 833 1111 l 694 1111 l 694 278 l 833 278 l 833 1111 m 69 1250 l 139 1250 l 139 1319 l 69 1319 l 69 1250 m 486 1250 l 556 1250 l 556 1319 l 486 1319 l 486 1250 z "},"Я":{"ha":972,"x_min":0,"x_max":833,"o":"m 0 1319 l 69 1319 l 69 1389 l 764 1389 l 764 1319 l 833 1319 l 833 0 l 556 0 l 556 556 l 417 556 l 417 486 l 347 486 l 347 417 l 278 417 l 278 0 l 0 0 l 0 486 l 69 486 l 69 556 l 139 556 l 139 625 l 69 625 l 69 694 l 0 694 l 0 1319 m 278 833 l 556 833 l 556 1111 l 278 1111 l 278 833 m 69 1250 l 139 1250 l 139 1319 l 69 1319 l 69 1250 z "},"а":{"ha":972,"x_min":0,"x_max":833,"o":"m 0 1042 l 69 1042 l 69 1111 l 764 1111 l 764 1042 l 833 1042 l 833 0 l 69 0 l 69 69 l 0 69 l 0 625 l 69 625 l 69 694 l 556 694 l 556 833 l 0 833 l 0 1042 m 278 278 l 556 278 l 556 417 l 278 417 l 278 278 m 69 972 l 139 972 l 139 1042 l 69 1042 l 69 972 z "},"б":{"ha":972,"x_min":0,"x_max":833,"o":"m 0 1042 l 69 1042 l 69 1111 l 833 1111 l 833 833 l 278 833 l 278 694 l 764 694 l 764 625 l 833 625 l 833 69 l 764 69 l 764 0 l 0 0 l 0 1042 m 278 278 l 556 278 l 556 417 l 278 417 l 278 278 m 69 972 l 139 972 l 139 1042 l 69 1042 l 69 972 z "},"в":{"ha":972,"x_min":0,"x_max":833,"o":"m 0 1042 l 69 1042 l 69 1111 l 764 1111 l 764 1042 l 833 1042 l 833 694 l 764 694 l 764 417 l 833 417 l 833 69 l 764 69 l 764 0 l 0 0 l 0 1042 m 278 278 l 556 278 l 556 417 l 278 417 l 278 278 m 278 694 l 556 694 l 556 833 l 278 833 l 278 694 m 69 972 l 139 972 l 139 1042 l 69 1042 l 69 972 z "},"г":{"ha":972,"x_min":0,"x_max":833,"o":"m 0 1042 l 69 1042 l 69 1111 l 764 1111 l 764 1042 l 833 1042 l 833 833 l 278 833 l 278 0 l 0 0 l 0 1042 m 69 972 l 139 972 l 139 1042 l 69 1042 l 69 972 z "},"д":{"ha":1111,"x_min":0,"x_max":972,"o":"m 0 208 l 69 208 l 69 278 l 139 278 l 139 1042 l 208 1042 l 208 1111 l 833 1111 l 833 278 l 903 278 l 903 208 l 972 208 l 972 -139 l 694 -139 l 694 0 l 278 0 l 278 -139 l 0 -139 l 0 208 m 417 278 l 556 278 l 556 833 l 417 833 l 417 278 m 208 972 l 278 972 l 278 1042 l 208 1042 l 208 972 z "},"е":{"ha":972,"x_min":0,"x_max":833,"o":"m 0 1042 l 69 1042 l 69 1111 l 764 1111 l 764 1042 l 833 1042 l 833 486 l 764 486 l 764 417 l 278 417 l 278 278 l 833 278 l 833 0 l 69 0 l 69 69 l 0 69 l 0 1042 m 278 694 l 556 694 l 556 833 l 278 833 l 278 694 m 69 972 l 139 972 l 139 1042 l 69 1042 l 69 972 z "},"ж":{"ha":1111,"x_min":0,"x_max":972,"o":"m 0 1042 l 69 1042 l 69 1111 l 278 1111 l 278 694 l 417 694 l 417 1111 l 556 1111 l 556 694 l 694 694 l 694 1111 l 903 1111 l 903 1042 l 972 1042 l 972 694 l 903 694 l 903 417 l 972 417 l 972 0 l 694 0 l 694 417 l 556 417 l 556 0 l 417 0 l 417 417 l 278 417 l 278 0 l 0 0 l 0 417 l 69 417 l 69 694 l 0 694 l 0 1042 m 69 972 l 139 972 l 139 1042 l 69 1042 l 69 972 z "},"з":{"ha":972,"x_min":0,"x_max":833,"o":"m 0 1042 l 69 1042 l 69 1111 l 764 1111 l 764 1042 l 833 1042 l 833 694 l 764 694 l 764 417 l 833 417 l 833 69 l 764 69 l 764 0 l 69 0 l 69 69 l 0 69 l 0 278 l 556 278 l 556 417 l 208 417 l 208 694 l 556 694 l 556 833 l 0 833 l 0 1042 m 69 972 l 139 972 l 139 1042 l 69 1042 l 69 972 z "},"и":{"ha":972,"x_min":0,"x_max":833,"o":"m 0 1042 l 69 1042 l 69 1111 l 278 1111 l 278 625 l 347 625 l 347 694 l 417 694 l 417 764 l 486 764 l 486 833 l 556 833 l 556 1111 l 764 1111 l 764 1042 l 833 1042 l 833 0 l 556 0 l 556 486 l 486 486 l 486 417 l 417 417 l 417 347 l 347 347 l 347 278 l 278 278 l 278 0 l 0 0 l 0 1042 m 69 972 l 139 972 l 139 1042 l 69 1042 l 69 972 z "},"й":{"ha":972,"x_min":0,"x_max":833,"o":"m 0 1042 l 69 1042 l 69 1111 l 278 1111 l 278 625 l 347 625 l 347 694 l 417 694 l 417 764 l 486 764 l 486 833 l 556 833 l 556 1111 l 764 1111 l 764 1042 l 833 1042 l 833 0 l 556 0 l 556 486 l 486 486 l 486 417 l 417 417 l 417 347 l 347 347 l 347 278 l 278 278 l 278 0 l 0 0 l 0 1042 m 69 972 l 139 972 l 139 1042 l 69 1042 l 69 972 m 139 1389 l 347 1389 l 347 1319 l 486 1319 l 486 1389 l 694 1389 l 694 1319 l 625 1319 l 625 1250 l 556 1250 l 556 1181 l 278 1181 l 278 1250 l 208 1250 l 208 1319 l 139 1319 l 139 1389 z "},"к":{"ha":972,"x_min":0,"x_max":833,"o":"m 0 1042 l 69 1042 l 69 1111 l 278 1111 l 278 694 l 417 694 l 417 764 l 486 764 l 486 833 l 556 833 l 556 1111 l 833 1111 l 833 764 l 764 764 l 764 694 l 694 694 l 694 625 l 625 625 l 625 486 l 694 486 l 694 417 l 764 417 l 764 347 l 833 347 l 833 0 l 556 0 l 556 278 l 486 278 l 486 347 l 417 347 l 417 417 l 278 417 l 278 0 l 0 0 l 0 1042 m 69 972 l 139 972 l 139 1042 l 69 1042 l 69 972 z "},"л":{"ha":972,"x_min":0,"x_max":833,"o":"m 0 903 l 69 903 l 69 972 l 139 972 l 139 1042 l 208 1042 l 208 1111 l 833 1111 l 833 0 l 556 0 l 556 833 l 347 833 l 347 764 l 278 764 l 278 0 l 0 0 l 0 903 m 208 972 l 278 972 l 278 1042 l 208 1042 l 208 972 z "},"м":{"ha":1111,"x_min":0,"x_max":972,"o":"m 0 1042 l 69 1042 l 69 1111 l 278 1111 l 278 972 l 347 972 l 347 903 l 417 903 l 417 833 l 556 833 l 556 903 l 625 903 l 625 972 l 694 972 l 694 1111 l 903 1111 l 903 1042 l 972 1042 l 972 0 l 694 0 l 694 694 l 625 694 l 625 625 l 556 625 l 556 417 l 417 417 l 417 625 l 347 625 l 347 694 l 278 694 l 278 0 l 0 0 l 0 1042 m 69 972 l 139 972 l 139 1042 l 69 1042 l 69 972 z "},"н":{"ha":972,"x_min":0,"x_max":833,"o":"m 0 1042 l 69 1042 l 69 1111 l 278 1111 l 278 694 l 556 694 l 556 1111 l 764 1111 l 764 1042 l 833 1042 l 833 0 l 556 0 l 556 417 l 278 417 l 278 0 l 0 0 l 0 1042 m 69 972 l 139 972 l 139 1042 l 69 1042 l 69 972 z "},"о":{"ha":972,"x_min":0,"x_max":833,"o":"m 0 1042 l 69 1042 l 69 1111 l 764 1111 l 764 1042 l 833 1042 l 833 69 l 764 69 l 764 0 l 69 0 l 69 69 l 0 69 l 0 1042 m 278 278 l 556 278 l 556 833 l 278 833 l 278 278 m 69 972 l 139 972 l 139 1042 l 69 1042 l 69 972 z "},"п":{"ha":972,"x_min":0,"x_max":833,"o":"m 0 1042 l 69 1042 l 69 1111 l 764 1111 l 764 1042 l 833 1042 l 833 0 l 556 0 l 556 833 l 278 833 l 278 0 l 0 0 l 0 1042 m 69 972 l 139 972 l 139 1042 l 69 1042 l 69 972 z "},"р":{"ha":972,"x_min":0,"x_max":833,"o":"m 0 1042 l 69 1042 l 69 1111 l 764 1111 l 764 1042 l 833 1042 l 833 69 l 764 69 l 764 0 l 278 0 l 278 -417 l 0 -417 l 0 1042 m 278 278 l 556 278 l 556 833 l 278 833 l 278 278 m 69 972 l 139 972 l 139 1042 l 69 1042 l 69 972 z "},"с":{"ha":972,"x_min":0,"x_max":833,"o":"m 0 1042 l 69 1042 l 69 1111 l 764 1111 l 764 1042 l 833 1042 l 833 694 l 556 694 l 556 833 l 278 833 l 278 278 l 556 278 l 556 417 l 833 417 l 833 69 l 764 69 l 764 0 l 69 0 l 69 69 l 0 69 l 0 1042 m 69 972 l 139 972 l 139 1042 l 69 1042 l 69 972 z "},"т":{"ha":972,"x_min":0,"x_max":833,"o":"m 0 1042 l 69 1042 l 69 1111 l 764 1111 l 764 1042 l 833 1042 l 833 833 l 556 833 l 556 0 l 278 0 l 278 833 l 0 833 l 0 1042 m 69 972 l 139 972 l 139 1042 l 69 1042 l 69 972 z "},"у":{"ha":972,"x_min":0,"x_max":833,"o":"m 0 1042 l 69 1042 l 69 1111 l 278 1111 l 278 278 l 556 278 l 556 1111 l 764 1111 l 764 1042 l 833 1042 l 833 -347 l 764 -347 l 764 -417 l 208 -417 l 208 -347 l 139 -347 l 139 -139 l 556 -139 l 556 0 l 69 0 l 69 69 l 0 69 l 0 1042 m 69 972 l 139 972 l 139 1042 l 69 1042 l 69 972 z "},"ф":{"ha":1111,"x_min":0,"x_max":972,"o":"m 0 1042 l 69 1042 l 69 1111 l 417 1111 l 417 1250 l 556 1250 l 556 1111 l 903 1111 l 903 1042 l 972 1042 l 972 69 l 903 69 l 903 0 l 556 0 l 556 -139 l 417 -139 l 417 0 l 69 0 l 69 69 l 0 69 l 0 1042 m 556 278 l 694 278 l 694 833 l 556 833 l 556 278 m 278 278 l 417 278 l 417 833 l 278 833 l 278 278 m 69 972 l 139 972 l 139 1042 l 69 1042 l 69 972 z "},"х":{"ha":972,"x_min":0,"x_max":833,"o":"m 0 1042 l 69 1042 l 69 1111 l 278 1111 l 278 903 l 347 903 l 347 833 l 486 833 l 486 903 l 556 903 l 556 1111 l 764 1111 l 764 1042 l 833 1042 l 833 833 l 764 833 l 764 764 l 694 764 l 694 694 l 625 694 l 625 625 l 556 625 l 556 486 l 625 486 l 625 417 l 694 417 l 694 347 l 764 347 l 764 278 l 833 278 l 833 0 l 556 0 l 556 208 l 486 208 l 486 278 l 347 278 l 347 208 l 278 208 l 278 0 l 0 0 l 0 278 l 69 278 l 69 347 l 139 347 l 139 417 l 208 417 l 208 486 l 278 486 l 278 625 l 208 625 l 208 694 l 139 694 l 139 764 l 69 764 l 69 833 l 0 833 l 0 1042 m 69 972 l 139 972 l 139 1042 l 69 1042 l 69 972 z "},"ц":{"ha":1111,"x_min":0,"x_max":972,"o":"m 0 1042 l 69 1042 l 69 1111 l 278 1111 l 278 278 l 556 278 l 556 1111 l 764 1111 l 764 1042 l 833 1042 l 833 278 l 903 278 l 903 208 l 972 208 l 972 -139 l 694 -139 l 694 0 l 69 0 l 69 69 l 0 69 l 0 1042 m 69 972 l 139 972 l 139 1042 l 69 1042 l 69 972 z "},"ч":{"ha":972,"x_min":0,"x_max":833,"o":"m 0 1042 l 69 1042 l 69 1111 l 278 1111 l 278 694 l 556 694 l 556 1111 l 764 1111 l 764 1042 l 833 1042 l 833 0 l 556 0 l 556 417 l 69 417 l 69 486 l 0 486 l 0 1042 m 69 972 l 139 972 l 139 1042 l 69 1042 l 69 972 z "},"ш":{"ha":1111,"x_min":0,"x_max":972,"o":"m 0 1042 l 69 1042 l 69 1111 l 278 1111 l 278 278 l 417 278 l 417 972 l 556 972 l 556 278 l 694 278 l 694 1111 l 903 1111 l 903 1042 l 972 1042 l 972 69 l 903 69 l 903 0 l 69 0 l 69 69 l 0 69 l 0 1042 m 69 972 l 139 972 l 139 1042 l 69 1042 l 69 972 z "},"щ":{"ha":1250,"x_min":0,"x_max":1111,"o":"m 0 1042 l 69 1042 l 69 1111 l 278 1111 l 278 278 l 417 278 l 417 972 l 556 972 l 556 278 l 694 278 l 694 1111 l 903 1111 l 903 1042 l 972 1042 l 972 278 l 1042 278 l 1042 208 l 1111 208 l 1111 -139 l 833 -139 l 833 0 l 69 0 l 69 69 l 0 69 l 0 1042 m 69 972 l 139 972 l 139 1042 l 69 1042 l 69 972 z "},"ъ":{"ha":1111,"x_min":0,"x_max":972,"o":"m 0 1042 l 69 1042 l 69 1111 l 347 1111 l 347 1042 l 417 1042 l 417 694 l 903 694 l 903 625 l 972 625 l 972 69 l 903 69 l 903 0 l 208 0 l 208 69 l 139 69 l 139 833 l 0 833 l 0 1042 m 417 278 l 694 278 l 694 417 l 417 417 l 417 278 m 69 972 l 139 972 l 139 1042 l 69 1042 l 69 972 z "},"ы":{"ha":1389,"x_min":0,"x_max":1250,"o":"m 0 1042 l 69 1042 l 69 1111 l 278 1111 l 278 694 l 764 694 l 764 625 l 833 625 l 833 69 l 764 69 l 764 0 l 69 0 l 69 69 l 0 69 l 0 1042 m 972 1042 l 1042 1042 l 1042 1111 l 1250 1111 l 1250 0 l 972 0 l 972 1042 m 278 278 l 556 278 l 556 417 l 278 417 l 278 278 m 69 972 l 139 972 l 139 1042 l 69 1042 l 69 972 m 1042 972 l 1111 972 l 1111 1042 l 1042 1042 l 1042 972 z "},"ь":{"ha":972,"x_min":0,"x_max":833,"o":"m 0 1042 l 69 1042 l 69 1111 l 278 1111 l 278 694 l 764 694 l 764 625 l 833 625 l 833 69 l 764 69 l 764 0 l 69 0 l 69 69 l 0 69 l 0 1042 m 278 278 l 556 278 l 556 417 l 278 417 l 278 278 m 69 972 l 139 972 l 139 1042 l 69 1042 l 69 972 z "},"э":{"ha":972,"x_min":0,"x_max":833,"o":"m 0 1042 l 69 1042 l 69 1111 l 764 1111 l 764 1042 l 833 1042 l 833 69 l 764 69 l 764 0 l 69 0 l 69 69 l 0 69 l 0 278 l 556 278 l 556 417 l 278 417 l 278 694 l 556 694 l 556 833 l 0 833 l 0 1042 m 69 972 l 139 972 l 139 1042 l 69 1042 l 69 972 z "},"ю":{"ha":1250,"x_min":0,"x_max":1111,"o":"m 0 1042 l 69 1042 l 69 1111 l 278 1111 l 278 694 l 417 694 l 417 1042 l 486 1042 l 486 1111 l 1042 1111 l 1042 1042 l 1111 1042 l 1111 0 l 417 0 l 417 417 l 278 417 l 278 0 l 0 0 l 0 1042 m 694 278 l 833 278 l 833 833 l 694 833 l 694 278 m 69 972 l 139 972 l 139 1042 l 69 1042 l 69 972 m 486 972 l 556 972 l 556 1042 l 486 1042 l 486 972 z "},"я":{"ha":972,"x_min":0,"x_max":833,"o":"m 0 1042 l 69 1042 l 69 1111 l 833 1111 l 833 0 l 556 0 l 556 347 l 486 347 l 486 278 l 417 278 l 417 208 l 347 208 l 347 139 l 278 139 l 278 69 l 208 69 l 208 0 l 0 0 l 0 208 l 69 208 l 69 278 l 139 278 l 139 347 l 208 347 l 208 417 l 69 417 l 69 486 l 0 486 l 0 1042 m 556 833 l 278 833 l 278 694 l 556 694 l 556 833 m 69 972 l 139 972 l 139 1042 l 69 1042 l 69 972 z "},"¡":{"ha":694,"x_min":0,"x_max":556,"o":"m 0 1042 l 69 1042 l 69 1111 l 486 1111 l 486 1042 l 556 1042 l 556 833 l 417 833 l 417 278 l 556 278 l 556 0 l 0 0 l 0 278 l 139 278 l 139 833 l 0 833 l 0 1042 m 139 1319 l 208 1319 l 208 1389 l 417 1389 l 417 1181 l 139 1181 l 139 1319 m 69 972 l 139 972 l 139 1042 l 69 1042 l 69 972 z "},"¢":{"ha":1111,"x_min":0,"x_max":972,"o":"m 0 1042 l 69 1042 l 69 1111 l 417 1111 l 417 1250 l 556 1250 l 556 1111 l 903 1111 l 903 1042 l 972 1042 l 972 694 l 694 694 l 694 833 l 556 833 l 556 278 l 694 278 l 694 417 l 972 417 l 972 69 l 903 69 l 903 0 l 556 0 l 556 -139 l 417 -139 l 417 0 l 69 0 l 69 69 l 0 69 l 0 1042 m 278 278 l 417 278 l 417 833 l 278 833 l 278 278 m 69 972 l 139 972 l 139 1042 l 69 1042 l 69 972 z "},"£":{"ha":833,"x_min":0,"x_max":694,"o":"m 0 972 l 139 972 l 139 1319 l 208 1319 l 208 1389 l 625 1389 l 625 1319 l 694 1319 l 694 1111 l 417 1111 l 417 972 l 625 972 l 625 694 l 417 694 l 417 278 l 625 278 l 625 0 l 0 0 l 0 278 l 139 278 l 139 694 l 0 694 l 0 972 m 208 1250 l 278 1250 l 278 1319 l 208 1319 l 208 1250 z "},"¥":{"ha":972,"x_min":0,"x_max":833,"o":"m 0 1319 l 69 1319 l 69 1389 l 278 1389 l 278 972 l 347 972 l 347 903 l 486 903 l 486 972 l 556 972 l 556 1389 l 764 1389 l 764 1319 l 833 1319 l 833 903 l 764 903 l 764 833 l 694 833 l 694 764 l 625 764 l 625 694 l 556 694 l 556 556 l 833 556 l 833 417 l 556 417 l 556 278 l 833 278 l 833 139 l 556 139 l 556 0 l 278 0 l 278 139 l 0 139 l 0 278 l 278 278 l 278 417 l 0 417 l 0 556 l 278 556 l 278 694 l 208 694 l 208 764 l 139 764 l 139 833 l 69 833 l 69 903 l 0 903 l 0 1319 m 69 1250 l 139 1250 l 139 1319 l 69 1319 l 69 1250 z "},"¨":{"ha":833,"x_min":0,"x_max":694,"o":"m 0 1389 l 278 1389 l 278 1111 l 0 1111 l 0 1389 m 417 1389 l 694 1389 l 694 1111 l 417 1111 l 417 1389 z "},"ª":{"ha":625,"x_min":0,"x_max":486,"o":"m 69 1389 l 417 1389 l 417 1319 l 486 1319 l 486 694 l 69 694 l 69 764 l 0 764 l 0 1042 l 69 1042 l 69 1111 l 347 1111 l 347 1250 l 69 1250 l 69 1389 m 139 833 l 347 833 l 347 972 l 139 972 l 139 833 z "},"²":{"ha":556,"x_min":0,"x_max":417,"o":"m 0 1389 l 417 1389 l 417 1042 l 139 1042 l 139 972 l 417 972 l 417 833 l 0 833 l 0 1181 l 278 1181 l 278 1250 l 0 1250 l 0 1389 z "},"³":{"ha":556,"x_min":0,"x_max":417,"o":"m 0 1389 l 417 1389 l 417 833 l 0 833 l 0 972 l 278 972 l 278 1042 l 69 1042 l 69 1181 l 278 1181 l 278 1250 l 0 1250 l 0 1389 z "},"´":{"ha":694,"x_min":0,"x_max":556,"o":"m 0 1111 l 69 1111 l 69 1181 l 139 1181 l 139 1250 l 208 1250 l 208 1319 l 278 1319 l 278 1389 l 556 1389 l 556 1319 l 486 1319 l 486 1250 l 417 1250 l 417 1181 l 347 1181 l 347 1111 l 278 1111 l 278 1042 l 0 1042 l 0 1111 z "},"¸":{"ha":556,"x_min":0,"x_max":417,"o":"m 0 0 l 139 0 l 139 -69 l 347 -69 l 347 -139 l 417 -139 l 417 -347 l 347 -347 l 347 -417 l 0 -417 l 0 -278 l 278 -278 l 278 -208 l 0 -208 l 0 0 z "},"¹":{"ha":556,"x_min":0,"x_max":417,"o":"m 0 1389 l 278 1389 l 278 972 l 417 972 l 417 833 l 0 833 l 0 972 l 139 972 l 139 1250 l 0 1250 l 0 1389 z "},"º":{"ha":556,"x_min":0,"x_max":417,"o":"m 0 1389 l 417 1389 l 417 833 l 0 833 l 0 1389 m 139 972 l 278 972 l 278 1250 l 139 1250 l 139 972 z "},"¼":{"ha":1111,"x_min":0,"x_max":972,"o":"m 0 347 l 69 347 l 69 417 l 139 417 l 139 486 l 208 486 l 208 556 l 278 556 l 278 625 l 347 625 l 347 694 l 417 694 l 417 764 l 486 764 l 486 833 l 556 833 l 556 903 l 625 903 l 625 972 l 694 972 l 694 1042 l 764 1042 l 764 1111 l 833 1111 l 833 1181 l 972 1181 l 972 1042 l 903 1042 l 903 972 l 833 972 l 833 903 l 764 903 l 764 833 l 694 833 l 694 764 l 625 764 l 625 694 l 556 694 l 556 625 l 486 625 l 486 556 l 417 556 l 417 486 l 347 486 l 347 417 l 278 417 l 278 347 l 208 347 l 208 278 l 139 278 l 139 208 l 0 208 l 0 347 m 556 556 l 694 556 l 694 347 l 833 347 l 833 556 l 972 556 l 972 0 l 833 0 l 833 208 l 556 208 l 556 556 m 0 1389 l 278 1389 l 278 972 l 417 972 l 417 833 l 0 833 l 0 972 l 139 972 l 139 1250 l 0 1250 l 0 1389 z "},"½":{"ha":1111,"x_min":0,"x_max":972,"o":"m 0 347 l 69 347 l 69 417 l 139 417 l 139 486 l 208 486 l 208 556 l 278 556 l 278 625 l 347 625 l 347 694 l 417 694 l 417 764 l 486 764 l 486 833 l 556 833 l 556 903 l 625 903 l 625 972 l 694 972 l 694 1042 l 764 1042 l 764 1111 l 833 1111 l 833 1181 l 972 1181 l 972 1042 l 903 1042 l 903 972 l 833 972 l 833 903 l 764 903 l 764 833 l 694 833 l 694 764 l 625 764 l 625 694 l 556 694 l 556 625 l 486 625 l 486 556 l 417 556 l 417 486 l 347 486 l 347 417 l 278 417 l 278 347 l 208 347 l 208 278 l 139 278 l 139 208 l 0 208 l 0 347 m 556 556 l 972 556 l 972 208 l 694 208 l 694 139 l 972 139 l 972 0 l 556 0 l 556 347 l 833 347 l 833 417 l 556 417 l 556 556 m 0 1389 l 278 1389 l 278 972 l 417 972 l 417 833 l 0 833 l 0 972 l 139 972 l 139 1250 l 0 1250 l 0 1389 z "},"¾":{"ha":1111,"x_min":0,"x_max":972,"o":"m 0 347 l 69 347 l 69 417 l 139 417 l 139 486 l 208 486 l 208 556 l 278 556 l 278 625 l 347 625 l 347 694 l 417 694 l 417 764 l 486 764 l 486 833 l 556 833 l 556 903 l 625 903 l 625 972 l 694 972 l 694 1042 l 764 1042 l 764 1111 l 833 1111 l 833 1181 l 972 1181 l 972 1042 l 903 1042 l 903 972 l 833 972 l 833 903 l 764 903 l 764 833 l 694 833 l 694 764 l 625 764 l 625 694 l 556 694 l 556 625 l 486 625 l 486 556 l 417 556 l 417 486 l 347 486 l 347 417 l 278 417 l 278 347 l 208 347 l 208 278 l 139 278 l 139 208 l 0 208 l 0 347 m 0 1389 l 417 1389 l 417 833 l 0 833 l 0 972 l 278 972 l 278 1042 l 69 1042 l 69 1181 l 278 1181 l 278 1250 l 0 1250 l 0 1389 m 556 556 l 694 556 l 694 347 l 833 347 l 833 556 l 972 556 l 972 0 l 833 0 l 833 208 l 556 208 l 556 556 z "},"¿":{"ha":972,"x_min":0,"x_max":833,"o":"m 0 764 l 69 764 l 69 833 l 278 833 l 278 972 l 556 972 l 556 625 l 486 625 l 486 556 l 278 556 l 278 278 l 556 278 l 556 417 l 833 417 l 833 69 l 764 69 l 764 0 l 69 0 l 69 69 l 0 69 l 0 764 m 278 1319 l 347 1319 l 347 1389 l 556 1389 l 556 1111 l 278 1111 l 278 1319 m 347 1250 l 417 1250 l 417 1319 l 347 1319 l 347 1250 z "},"À":{"ha":972,"x_min":0,"x_max":833,"o":"m 0 1319 l 69 1319 l 69 1389 l 764 1389 l 764 1319 l 833 1319 l 833 0 l 556 0 l 556 556 l 278 556 l 278 0 l 0 0 l 0 1319 m 278 833 l 556 833 l 556 1111 l 278 1111 l 278 833 m 139 1667 l 417 1667 l 417 1597 l 486 1597 l 486 1528 l 556 1528 l 556 1458 l 278 1458 l 278 1528 l 208 1528 l 208 1597 l 139 1597 l 139 1667 m 69 1250 l 139 1250 l 139 1319 l 69 1319 l 69 1250 z "},"Á":{"ha":972,"x_min":0,"x_max":833,"o":"m 0 1319 l 69 1319 l 69 1389 l 764 1389 l 764 1319 l 833 1319 l 833 0 l 556 0 l 556 556 l 278 556 l 278 0 l 0 0 l 0 1319 m 278 833 l 556 833 l 556 1111 l 278 1111 l 278 833 m 278 1528 l 347 1528 l 347 1597 l 417 1597 l 417 1667 l 694 1667 l 694 1597 l 625 1597 l 625 1528 l 556 1528 l 556 1458 l 278 1458 l 278 1528 m 69 1250 l 139 1250 l 139 1319 l 69 1319 l 69 1250 z "},"Â":{"ha":972,"x_min":0,"x_max":833,"o":"m 0 1319 l 69 1319 l 69 1389 l 764 1389 l 764 1319 l 833 1319 l 833 0 l 556 0 l 556 556 l 278 556 l 278 0 l 0 0 l 0 1319 m 139 1528 l 208 1528 l 208 1597 l 278 1597 l 278 1667 l 556 1667 l 556 1597 l 625 1597 l 625 1528 l 694 1528 l 694 1458 l 486 1458 l 486 1528 l 347 1528 l 347 1458 l 139 1458 l 139 1528 m 278 833 l 556 833 l 556 1111 l 278 1111 l 278 833 m 69 1250 l 139 1250 l 139 1319 l 69 1319 l 69 1250 z "},"Ã":{"ha":972,"x_min":0,"x_max":833,"o":"m 0 1319 l 69 1319 l 69 1389 l 764 1389 l 764 1319 l 833 1319 l 833 0 l 556 0 l 556 556 l 278 556 l 278 0 l 0 0 l 0 1319 m 139 1597 l 208 1597 l 208 1667 l 486 1667 l 486 1597 l 625 1597 l 625 1667 l 764 1667 l 764 1528 l 694 1528 l 694 1458 l 417 1458 l 417 1528 l 278 1528 l 278 1458 l 139 1458 l 139 1597 m 278 833 l 556 833 l 556 1111 l 278 1111 l 278 833 m 69 1250 l 139 1250 l 139 1319 l 69 1319 l 69 1250 z "},"Ä":{"ha":972,"x_min":0,"x_max":833,"o":"m 0 1319 l 69 1319 l 69 1389 l 764 1389 l 764 1319 l 833 1319 l 833 0 l 556 0 l 556 556 l 278 556 l 278 0 l 0 0 l 0 1319 m 278 833 l 556 833 l 556 1111 l 278 1111 l 278 833 m 69 1597 l 139 1597 l 139 1667 l 347 1667 l 347 1458 l 69 1458 l 69 1597 m 486 1597 l 556 1597 l 556 1667 l 764 1667 l 764 1458 l 486 1458 l 486 1597 m 69 1250 l 139 1250 l 139 1319 l 69 1319 l 69 1250 z "},"Å":{"ha":972,"x_min":0,"x_max":833,"o":"m 0 1319 l 69 1319 l 69 1389 l 764 1389 l 764 1319 l 833 1319 l 833 0 l 556 0 l 556 556 l 278 556 l 278 0 l 0 0 l 0 1319 m 208 1597 l 278 1597 l 278 1667 l 556 1667 l 556 1597 l 625 1597 l 625 1528 l 556 1528 l 556 1458 l 278 1458 l 278 1528 l 208 1528 l 208 1597 m 278 833 l 556 833 l 556 1111 l 278 1111 l 278 833 m 347 1528 l 486 1528 l 486 1597 l 347 1597 l 347 1528 m 69 1250 l 139 1250 l 139 1319 l 69 1319 l 69 1250 z "},"Æ":{"ha":1250,"x_min":0,"x_max":1111,"o":"m 0 1319 l 69 1319 l 69 1389 l 1042 1389 l 1042 1319 l 1111 1319 l 1111 1111 l 694 1111 l 694 833 l 972 833 l 972 556 l 694 556 l 694 278 l 1111 278 l 1111 69 l 1042 69 l 1042 0 l 417 0 l 417 556 l 278 556 l 278 0 l 0 0 l 0 1319 m 278 1111 l 278 833 l 417 833 l 417 1111 l 278 1111 m 69 1250 l 139 1250 l 139 1319 l 69 1319 l 69 1250 z "},"Ç":{"ha":972,"x_min":0,"x_max":833,"o":"m 0 1319 l 69 1319 l 69 1389 l 764 1389 l 764 1319 l 833 1319 l 833 972 l 556 972 l 556 1111 l 278 1111 l 278 278 l 556 278 l 556 417 l 833 417 l 833 69 l 764 69 l 764 0 l 417 0 l 417 -69 l 625 -69 l 625 -139 l 694 -139 l 694 -347 l 625 -347 l 625 -417 l 278 -417 l 278 -278 l 556 -278 l 556 -208 l 278 -208 l 278 0 l 69 0 l 69 69 l 0 69 l 0 1319 m 69 1250 l 139 1250 l 139 1319 l 69 1319 l 69 1250 z "},"È":{"ha":972,"x_min":0,"x_max":833,"o":"m 0 1319 l 69 1319 l 69 1389 l 764 1389 l 764 1319 l 833 1319 l 833 1111 l 278 1111 l 278 833 l 694 833 l 694 556 l 278 556 l 278 278 l 833 278 l 833 69 l 764 69 l 764 0 l 69 0 l 69 69 l 0 69 l 0 1319 m 139 1667 l 417 1667 l 417 1597 l 486 1597 l 486 1528 l 556 1528 l 556 1458 l 278 1458 l 278 1528 l 208 1528 l 208 1597 l 139 1597 l 139 1667 m 69 1250 l 139 1250 l 139 1319 l 69 1319 l 69 1250 z "},"É":{"ha":972,"x_min":0,"x_max":833,"o":"m 0 1319 l 69 1319 l 69 1389 l 764 1389 l 764 1319 l 833 1319 l 833 1111 l 278 1111 l 278 833 l 694 833 l 694 556 l 278 556 l 278 278 l 833 278 l 833 69 l 764 69 l 764 0 l 69 0 l 69 69 l 0 69 l 0 1319 m 278 1528 l 347 1528 l 347 1597 l 417 1597 l 417 1667 l 694 1667 l 694 1597 l 625 1597 l 625 1528 l 556 1528 l 556 1458 l 278 1458 l 278 1528 m 69 1250 l 139 1250 l 139 1319 l 69 1319 l 69 1250 z "},"Ê":{"ha":972,"x_min":0,"x_max":833,"o":"m 0 1319 l 69 1319 l 69 1389 l 764 1389 l 764 1319 l 833 1319 l 833 1111 l 278 1111 l 278 833 l 694 833 l 694 556 l 278 556 l 278 278 l 833 278 l 833 69 l 764 69 l 764 0 l 69 0 l 69 69 l 0 69 l 0 1319 m 139 1528 l 208 1528 l 208 1597 l 278 1597 l 278 1667 l 556 1667 l 556 1597 l 625 1597 l 625 1528 l 694 1528 l 694 1458 l 486 1458 l 486 1528 l 347 1528 l 347 1458 l 139 1458 l 139 1528 m 69 1250 l 139 1250 l 139 1319 l 69 1319 l 69 1250 z "},"Ë":{"ha":972,"x_min":0,"x_max":833,"o":"m 0 1319 l 69 1319 l 69 1389 l 764 1389 l 764 1319 l 833 1319 l 833 1111 l 278 1111 l 278 833 l 694 833 l 694 556 l 278 556 l 278 278 l 833 278 l 833 69 l 764 69 l 764 0 l 69 0 l 69 69 l 0 69 l 0 1319 m 69 1597 l 139 1597 l 139 1667 l 347 1667 l 347 1458 l 69 1458 l 69 1597 m 486 1597 l 556 1597 l 556 1667 l 764 1667 l 764 1458 l 486 1458 l 486 1597 m 69 1250 l 139 1250 l 139 1319 l 69 1319 l 69 1250 z "},"Ì":{"ha":972,"x_min":0,"x_max":833,"o":"m 0 1319 l 69 1319 l 69 1389 l 764 1389 l 764 1319 l 833 1319 l 833 1111 l 556 1111 l 556 278 l 833 278 l 833 0 l 0 0 l 0 278 l 278 278 l 278 1111 l 0 1111 l 0 1319 m 139 1667 l 417 1667 l 417 1597 l 486 1597 l 486 1528 l 556 1528 l 556 1458 l 278 1458 l 278 1528 l 208 1528 l 208 1597 l 139 1597 l 139 1667 m 69 1250 l 139 1250 l 139 1319 l 69 1319 l 69 1250 z "},"Í":{"ha":972,"x_min":0,"x_max":833,"o":"m 0 1319 l 69 1319 l 69 1389 l 764 1389 l 764 1319 l 833 1319 l 833 1111 l 556 1111 l 556 278 l 833 278 l 833 0 l 0 0 l 0 278 l 278 278 l 278 1111 l 0 1111 l 0 1319 m 278 1528 l 347 1528 l 347 1597 l 417 1597 l 417 1667 l 694 1667 l 694 1597 l 625 1597 l 625 1528 l 556 1528 l 556 1458 l 278 1458 l 278 1528 m 69 1250 l 139 1250 l 139 1319 l 69 1319 l 69 1250 z "},"Î":{"ha":972,"x_min":0,"x_max":833,"o":"m 0 1319 l 69 1319 l 69 1389 l 764 1389 l 764 1319 l 833 1319 l 833 1111 l 556 1111 l 556 278 l 833 278 l 833 0 l 0 0 l 0 278 l 278 278 l 278 1111 l 0 1111 l 0 1319 m 139 1528 l 208 1528 l 208 1597 l 278 1597 l 278 1667 l 556 1667 l 556 1597 l 625 1597 l 625 1528 l 694 1528 l 694 1458 l 486 1458 l 486 1528 l 347 1528 l 347 1458 l 139 1458 l 139 1528 m 69 1250 l 139 1250 l 139 1319 l 69 1319 l 69 1250 z "},"Ï":{"ha":972,"x_min":0,"x_max":833,"o":"m 0 1319 l 69 1319 l 69 1389 l 764 1389 l 764 1319 l 833 1319 l 833 1111 l 556 1111 l 556 278 l 833 278 l 833 0 l 0 0 l 0 278 l 278 278 l 278 1111 l 0 1111 l 0 1319 m 486 1597 l 556 1597 l 556 1667 l 764 1667 l 764 1458 l 486 1458 l 486 1597 m 69 1597 l 139 1597 l 139 1667 l 347 1667 l 347 1458 l 69 1458 l 69 1597 m 69 1250 l 139 1250 l 139 1319 l 69 1319 l 69 1250 z "},"Ð":{"ha":1111,"x_min":0,"x_max":972,"o":"m 0 833 l 139 833 l 139 1389 l 903 1389 l 903 1319 l 972 1319 l 972 69 l 903 69 l 903 0 l 139 0 l 139 556 l 0 556 l 0 833 m 417 278 l 694 278 l 694 1111 l 417 1111 l 417 833 l 556 833 l 556 556 l 417 556 l 417 278 m 208 1250 l 278 1250 l 278 1319 l 208 1319 l 208 1250 z "},"Ñ":{"ha":972,"x_min":0,"x_max":833,"o":"m 0 1319 l 69 1319 l 69 1389 l 278 1389 l 278 972 l 347 972 l 347 903 l 417 903 l 417 833 l 486 833 l 486 764 l 556 764 l 556 1389 l 764 1389 l 764 1319 l 833 1319 l 833 0 l 556 0 l 556 417 l 486 417 l 486 486 l 417 486 l 417 556 l 347 556 l 347 625 l 278 625 l 278 0 l 0 0 l 0 1319 m 139 1597 l 208 1597 l 208 1667 l 486 1667 l 486 1597 l 625 1597 l 625 1667 l 764 1667 l 764 1528 l 694 1528 l 694 1458 l 417 1458 l 417 1528 l 278 1528 l 278 1458 l 139 1458 l 139 1597 m 69 1250 l 139 1250 l 139 1319 l 69 1319 l 69 1250 z "},"Ò":{"ha":972,"x_min":0,"x_max":833,"o":"m 0 1319 l 69 1319 l 69 1389 l 764 1389 l 764 1319 l 833 1319 l 833 69 l 764 69 l 764 0 l 69 0 l 69 69 l 0 69 l 0 1319 m 278 278 l 556 278 l 556 1111 l 278 1111 l 278 278 m 139 1667 l 417 1667 l 417 1597 l 486 1597 l 486 1528 l 556 1528 l 556 1458 l 278 1458 l 278 1528 l 208 1528 l 208 1597 l 139 1597 l 139 1667 m 69 1250 l 139 1250 l 139 1319 l 69 1319 l 69 1250 z "},"Ó":{"ha":972,"x_min":0,"x_max":833,"o":"m 0 1319 l 69 1319 l 69 1389 l 764 1389 l 764 1319 l 833 1319 l 833 69 l 764 69 l 764 0 l 69 0 l 69 69 l 0 69 l 0 1319 m 278 278 l 556 278 l 556 1111 l 278 1111 l 278 278 m 278 1528 l 347 1528 l 347 1597 l 417 1597 l 417 1667 l 694 1667 l 694 1597 l 625 1597 l 625 1528 l 556 1528 l 556 1458 l 278 1458 l 278 1528 m 69 1250 l 139 1250 l 139 1319 l 69 1319 l 69 1250 z "},"Ô":{"ha":972,"x_min":0,"x_max":833,"o":"m 0 1319 l 69 1319 l 69 1389 l 764 1389 l 764 1319 l 833 1319 l 833 69 l 764 69 l 764 0 l 69 0 l 69 69 l 0 69 l 0 1319 m 278 278 l 556 278 l 556 1111 l 278 1111 l 278 278 m 139 1528 l 208 1528 l 208 1597 l 278 1597 l 278 1667 l 556 1667 l 556 1597 l 625 1597 l 625 1528 l 694 1528 l 694 1458 l 486 1458 l 486 1528 l 347 1528 l 347 1458 l 139 1458 l 139 1528 m 69 1250 l 139 1250 l 139 1319 l 69 1319 l 69 1250 z "},"Õ":{"ha":972,"x_min":0,"x_max":833,"o":"m 0 1319 l 69 1319 l 69 1389 l 764 1389 l 764 1319 l 833 1319 l 833 69 l 764 69 l 764 0 l 69 0 l 69 69 l 0 69 l 0 1319 m 278 278 l 556 278 l 556 1111 l 278 1111 l 278 278 m 139 1597 l 208 1597 l 208 1667 l 486 1667 l 486 1597 l 625 1597 l 625 1667 l 764 1667 l 764 1528 l 694 1528 l 694 1458 l 417 1458 l 417 1528 l 278 1528 l 278 1458 l 139 1458 l 139 1597 m 69 1250 l 139 1250 l 139 1319 l 69 1319 l 69 1250 z "},"Ö":{"ha":972,"x_min":0,"x_max":833,"o":"m 0 1319 l 69 1319 l 69 1389 l 764 1389 l 764 1319 l 833 1319 l 833 69 l 764 69 l 764 0 l 69 0 l 69 69 l 0 69 l 0 1319 m 278 278 l 556 278 l 556 1111 l 278 1111 l 278 278 m 486 1597 l 556 1597 l 556 1667 l 764 1667 l 764 1458 l 486 1458 l 486 1597 m 69 1597 l 139 1597 l 139 1667 l 347 1667 l 347 1458 l 69 1458 l 69 1597 m 69 1250 l 139 1250 l 139 1319 l 69 1319 l 69 1250 z "},"×":{"ha":833,"x_min":0,"x_max":694,"o":"m 0 972 l 69 972 l 69 1042 l 208 1042 l 208 972 l 278 972 l 278 903 l 417 903 l 417 972 l 486 972 l 486 1042 l 625 1042 l 625 972 l 694 972 l 694 833 l 625 833 l 625 764 l 556 764 l 556 625 l 625 625 l 625 556 l 694 556 l 694 417 l 625 417 l 625 347 l 486 347 l 486 417 l 417 417 l 417 486 l 278 486 l 278 417 l 208 417 l 208 347 l 69 347 l 69 417 l 0 417 l 0 556 l 69 556 l 69 625 l 139 625 l 139 764 l 69 764 l 69 833 l 0 833 l 0 972 m 69 903 l 139 903 l 139 972 l 69 972 l 69 903 z "},"Ø":{"ha":972,"x_min":0,"x_max":833,"o":"m 0 1319 l 69 1319 l 69 1389 l 764 1389 l 764 1319 l 833 1319 l 833 69 l 764 69 l 764 0 l 69 0 l 69 69 l 0 69 l 0 1319 m 556 694 l 486 694 l 486 625 l 417 625 l 417 556 l 347 556 l 347 486 l 278 486 l 278 278 l 556 278 l 556 694 m 278 694 l 347 694 l 347 764 l 417 764 l 417 833 l 486 833 l 486 903 l 556 903 l 556 1111 l 278 1111 l 278 694 m 69 1250 l 139 1250 l 139 1319 l 69 1319 l 69 1250 z "},"Ù":{"ha":972,"x_min":0,"x_max":833,"o":"m 0 1319 l 69 1319 l 69 1389 l 278 1389 l 278 278 l 556 278 l 556 1389 l 764 1389 l 764 1319 l 833 1319 l 833 69 l 764 69 l 764 0 l 69 0 l 69 69 l 0 69 l 0 1319 m 139 1667 l 417 1667 l 417 1597 l 486 1597 l 486 1528 l 556 1528 l 556 1458 l 278 1458 l 278 1528 l 208 1528 l 208 1597 l 139 1597 l 139 1667 m 69 1250 l 139 1250 l 139 1319 l 69 1319 l 69 1250 z "},"Ú":{"ha":972,"x_min":0,"x_max":833,"o":"m 0 1319 l 69 1319 l 69 1389 l 278 1389 l 278 278 l 556 278 l 556 1389 l 764 1389 l 764 1319 l 833 1319 l 833 69 l 764 69 l 764 0 l 69 0 l 69 69 l 0 69 l 0 1319 m 278 1528 l 347 1528 l 347 1597 l 417 1597 l 417 1667 l 694 1667 l 694 1597 l 625 1597 l 625 1528 l 556 1528 l 556 1458 l 278 1458 l 278 1528 m 69 1250 l 139 1250 l 139 1319 l 69 1319 l 69 1250 z "},"Û":{"ha":972,"x_min":0,"x_max":833,"o":"m 0 1319 l 69 1319 l 69 1389 l 278 1389 l 278 278 l 556 278 l 556 1389 l 764 1389 l 764 1319 l 833 1319 l 833 69 l 764 69 l 764 0 l 69 0 l 69 69 l 0 69 l 0 1319 m 139 1528 l 208 1528 l 208 1597 l 278 1597 l 278 1667 l 556 1667 l 556 1597 l 625 1597 l 625 1528 l 694 1528 l 694 1458 l 486 1458 l 486 1528 l 347 1528 l 347 1458 l 139 1458 l 139 1528 m 69 1250 l 139 1250 l 139 1319 l 69 1319 l 69 1250 z "},"Ü":{"ha":972,"x_min":0,"x_max":833,"o":"m 0 1319 l 69 1319 l 69 1389 l 278 1389 l 278 278 l 556 278 l 556 1389 l 764 1389 l 764 1319 l 833 1319 l 833 69 l 764 69 l 764 0 l 69 0 l 69 69 l 0 69 l 0 1319 m 69 1597 l 139 1597 l 139 1667 l 347 1667 l 347 1458 l 69 1458 l 69 1597 m 486 1597 l 556 1597 l 556 1667 l 764 1667 l 764 1458 l 486 1458 l 486 1597 m 69 1250 l 139 1250 l 139 1319 l 69 1319 l 69 1250 z "},"Ý":{"ha":972,"x_min":0,"x_max":833,"o":"m 0 1319 l 69 1319 l 69 1389 l 278 1389 l 278 972 l 347 972 l 347 903 l 486 903 l 486 972 l 556 972 l 556 1389 l 764 1389 l 764 1319 l 833 1319 l 833 903 l 764 903 l 764 833 l 694 833 l 694 764 l 625 764 l 625 694 l 556 694 l 556 0 l 278 0 l 278 694 l 208 694 l 208 764 l 139 764 l 139 833 l 69 833 l 69 903 l 0 903 l 0 1319 m 278 1528 l 347 1528 l 347 1597 l 417 1597 l 417 1667 l 694 1667 l 694 1597 l 625 1597 l 625 1528 l 556 1528 l 556 1458 l 278 1458 l 278 1528 m 69 1250 l 139 1250 l 139 1319 l 69 1319 l 69 1250 z "},"Þ":{"ha":972,"x_min":0,"x_max":833,"o":"m 0 1389 l 278 1389 l 278 1250 l 764 1250 l 764 1181 l 833 1181 l 833 208 l 764 208 l 764 139 l 278 139 l 278 0 l 0 0 l 0 1389 m 278 417 l 556 417 l 556 972 l 278 972 l 278 417 m 69 1250 l 139 1250 l 139 1319 l 69 1319 l 69 1250 z "},"ß":{"ha":972,"x_min":0,"x_max":833,"o":"m 0 1319 l 69 1319 l 69 1389 l 694 1389 l 694 1319 l 764 1319 l 764 833 l 694 833 l 694 625 l 764 625 l 764 556 l 833 556 l 833 69 l 764 69 l 764 0 l 347 0 l 347 278 l 556 278 l 556 486 l 486 486 l 486 556 l 278 556 l 278 0 l 0 0 l 0 1319 m 278 833 l 486 833 l 486 1111 l 278 1111 l 278 833 m 69 1250 l 139 1250 l 139 1319 l 69 1319 l 69 1250 z "},"à":{"ha":972,"x_min":0,"x_max":833,"o":"m 0 1042 l 69 1042 l 69 1111 l 764 1111 l 764 1042 l 833 1042 l 833 0 l 69 0 l 69 69 l 0 69 l 0 625 l 69 625 l 69 694 l 556 694 l 556 833 l 0 833 l 0 1042 m 139 1389 l 417 1389 l 417 1319 l 486 1319 l 486 1250 l 556 1250 l 556 1181 l 278 1181 l 278 1250 l 208 1250 l 208 1319 l 139 1319 l 139 1389 m 278 278 l 556 278 l 556 417 l 278 417 l 278 278 m 69 972 l 139 972 l 139 1042 l 69 1042 l 69 972 z "},"á":{"ha":972,"x_min":0,"x_max":833,"o":"m 0 1042 l 69 1042 l 69 1111 l 764 1111 l 764 1042 l 833 1042 l 833 0 l 69 0 l 69 69 l 0 69 l 0 625 l 69 625 l 69 694 l 556 694 l 556 833 l 0 833 l 0 1042 m 278 1250 l 347 1250 l 347 1319 l 417 1319 l 417 1389 l 694 1389 l 694 1319 l 625 1319 l 625 1250 l 556 1250 l 556 1181 l 278 1181 l 278 1250 m 278 278 l 556 278 l 556 417 l 278 417 l 278 278 m 69 972 l 139 972 l 139 1042 l 69 1042 l 69 972 z "},"â":{"ha":972,"x_min":0,"x_max":833,"o":"m 0 1042 l 69 1042 l 69 1111 l 764 1111 l 764 1042 l 833 1042 l 833 0 l 69 0 l 69 69 l 0 69 l 0 625 l 69 625 l 69 694 l 556 694 l 556 833 l 0 833 l 0 1042 m 139 1250 l 208 1250 l 208 1319 l 278 1319 l 278 1389 l 556 1389 l 556 1319 l 625 1319 l 625 1250 l 694 1250 l 694 1181 l 486 1181 l 486 1250 l 347 1250 l 347 1181 l 139 1181 l 139 1250 m 278 278 l 556 278 l 556 417 l 278 417 l 278 278 m 69 972 l 139 972 l 139 1042 l 69 1042 l 69 972 z "},"ã":{"ha":972,"x_min":0,"x_max":833,"o":"m 0 1042 l 69 1042 l 69 1111 l 764 1111 l 764 1042 l 833 1042 l 833 0 l 69 0 l 69 69 l 0 69 l 0 625 l 69 625 l 69 694 l 556 694 l 556 833 l 0 833 l 0 1042 m 139 1319 l 208 1319 l 208 1389 l 486 1389 l 486 1319 l 625 1319 l 625 1389 l 764 1389 l 764 1250 l 694 1250 l 694 1181 l 417 1181 l 417 1250 l 278 1250 l 278 1181 l 139 1181 l 139 1319 m 556 417 l 278 417 l 278 278 l 556 278 l 556 417 m 69 972 l 139 972 l 139 1042 l 69 1042 l 69 972 z "},"ä":{"ha":972,"x_min":0,"x_max":833,"o":"m 0 1042 l 69 1042 l 69 1111 l 764 1111 l 764 1042 l 833 1042 l 833 0 l 69 0 l 69 69 l 0 69 l 0 625 l 69 625 l 69 694 l 556 694 l 556 833 l 0 833 l 0 1042 m 486 1319 l 556 1319 l 556 1389 l 764 1389 l 764 1181 l 486 1181 l 486 1319 m 69 1319 l 139 1319 l 139 1389 l 347 1389 l 347 1181 l 69 1181 l 69 1319 m 278 278 l 556 278 l 556 417 l 278 417 l 278 278 m 69 972 l 139 972 l 139 1042 l 69 1042 l 69 972 z "},"å":{"ha":972,"x_min":0,"x_max":833,"o":"m 0 1042 l 69 1042 l 69 1111 l 764 1111 l 764 1042 l 833 1042 l 833 0 l 69 0 l 69 69 l 0 69 l 0 625 l 69 625 l 69 694 l 556 694 l 556 833 l 0 833 l 0 1042 m 208 1319 l 278 1319 l 278 1389 l 556 1389 l 556 1319 l 625 1319 l 625 1250 l 556 1250 l 556 1181 l 278 1181 l 278 1250 l 208 1250 l 208 1319 m 278 278 l 556 278 l 556 417 l 278 417 l 278 278 m 347 1250 l 486 1250 l 486 1319 l 347 1319 l 347 1250 m 69 972 l 139 972 l 139 1042 l 69 1042 l 69 972 z "},"æ":{"ha":1250,"x_min":0,"x_max":1111,"o":"m 0 1042 l 69 1042 l 69 1111 l 1042 1111 l 1042 1042 l 1111 1042 l 1111 486 l 1042 486 l 1042 417 l 694 417 l 694 278 l 1111 278 l 1111 0 l 69 0 l 69 69 l 0 69 l 0 625 l 69 625 l 69 694 l 417 694 l 417 833 l 0 833 l 0 1042 m 694 694 l 833 694 l 833 833 l 694 833 l 694 694 m 278 278 l 417 278 l 417 417 l 278 417 l 278 278 m 69 972 l 139 972 l 139 1042 l 69 1042 l 69 972 z "},"ç":{"ha":972,"x_min":0,"x_max":833,"o":"m 0 1042 l 69 1042 l 69 1111 l 764 1111 l 764 1042 l 833 1042 l 833 694 l 556 694 l 556 833 l 278 833 l 278 278 l 556 278 l 556 417 l 833 417 l 833 69 l 764 69 l 764 0 l 417 0 l 417 -69 l 625 -69 l 625 -139 l 694 -139 l 694 -347 l 625 -347 l 625 -417 l 278 -417 l 278 -278 l 556 -278 l 556 -208 l 278 -208 l 278 0 l 69 0 l 69 69 l 0 69 l 0 1042 m 69 972 l 139 972 l 139 1042 l 69 1042 l 69 972 z "},"è":{"ha":972,"x_min":0,"x_max":833,"o":"m 0 1042 l 69 1042 l 69 1111 l 764 1111 l 764 1042 l 833 1042 l 833 486 l 764 486 l 764 417 l 278 417 l 278 278 l 833 278 l 833 0 l 69 0 l 69 69 l 0 69 l 0 1042 m 139 1389 l 417 1389 l 417 1319 l 486 1319 l 486 1250 l 556 1250 l 556 1181 l 278 1181 l 278 1250 l 208 1250 l 208 1319 l 139 1319 l 139 1389 m 278 694 l 556 694 l 556 833 l 278 833 l 278 694 m 69 972 l 139 972 l 139 1042 l 69 1042 l 69 972 z "},"é":{"ha":972,"x_min":0,"x_max":833,"o":"m 0 1042 l 69 1042 l 69 1111 l 764 1111 l 764 1042 l 833 1042 l 833 486 l 764 486 l 764 417 l 278 417 l 278 278 l 833 278 l 833 0 l 69 0 l 69 69 l 0 69 l 0 1042 m 278 1250 l 347 1250 l 347 1319 l 417 1319 l 417 1389 l 694 1389 l 694 1319 l 625 1319 l 625 1250 l 556 1250 l 556 1181 l 278 1181 l 278 1250 m 556 833 l 278 833 l 278 694 l 556 694 l 556 833 m 69 972 l 139 972 l 139 1042 l 69 1042 l 69 972 z "},"ê":{"ha":972,"x_min":0,"x_max":833,"o":"m 0 1042 l 69 1042 l 69 1111 l 764 1111 l 764 1042 l 833 1042 l 833 486 l 764 486 l 764 417 l 278 417 l 278 278 l 833 278 l 833 0 l 69 0 l 69 69 l 0 69 l 0 1042 m 139 1250 l 208 1250 l 208 1319 l 278 1319 l 278 1389 l 556 1389 l 556 1319 l 625 1319 l 625 1250 l 694 1250 l 694 1181 l 486 1181 l 486 1250 l 347 1250 l 347 1181 l 139 1181 l 139 1250 m 278 694 l 556 694 l 556 833 l 278 833 l 278 694 m 69 972 l 139 972 l 139 1042 l 69 1042 l 69 972 z "},"ë":{"ha":972,"x_min":0,"x_max":833,"o":"m 0 1042 l 69 1042 l 69 1111 l 764 1111 l 764 1042 l 833 1042 l 833 486 l 764 486 l 764 417 l 278 417 l 278 278 l 833 278 l 833 0 l 69 0 l 69 69 l 0 69 l 0 1042 m 486 1319 l 556 1319 l 556 1389 l 764 1389 l 764 1181 l 486 1181 l 486 1319 m 69 1319 l 139 1319 l 139 1389 l 347 1389 l 347 1181 l 69 1181 l 69 1319 m 278 694 l 556 694 l 556 833 l 278 833 l 278 694 m 69 972 l 139 972 l 139 1042 l 69 1042 l 69 972 z "},"ì":{"ha":694,"x_min":0,"x_max":556,"o":"m 0 1042 l 69 1042 l 69 1111 l 486 1111 l 486 1042 l 556 1042 l 556 833 l 417 833 l 417 278 l 556 278 l 556 0 l 0 0 l 0 278 l 139 278 l 139 833 l 0 833 l 0 1042 m 0 1389 l 278 1389 l 278 1319 l 347 1319 l 347 1250 l 417 1250 l 417 1181 l 139 1181 l 139 1250 l 69 1250 l 69 1319 l 0 1319 l 0 1389 m 69 972 l 139 972 l 139 1042 l 69 1042 l 69 972 z "},"í":{"ha":694,"x_min":0,"x_max":556,"o":"m 0 1042 l 69 1042 l 69 1111 l 486 1111 l 486 1042 l 556 1042 l 556 833 l 417 833 l 417 278 l 556 278 l 556 0 l 0 0 l 0 278 l 139 278 l 139 833 l 0 833 l 0 1042 m 139 1250 l 208 1250 l 208 1319 l 278 1319 l 278 1389 l 556 1389 l 556 1319 l 486 1319 l 486 1250 l 417 1250 l 417 1181 l 139 1181 l 139 1250 m 69 972 l 139 972 l 139 1042 l 69 1042 l 69 972 z "},"î":{"ha":694,"x_min":0,"x_max":556,"o":"m 0 1042 l 69 1042 l 69 1111 l 486 1111 l 486 1042 l 556 1042 l 556 833 l 417 833 l 417 278 l 556 278 l 556 0 l 0 0 l 0 278 l 139 278 l 139 833 l 0 833 l 0 1042 m 0 1250 l 69 1250 l 69 1319 l 139 1319 l 139 1389 l 417 1389 l 417 1319 l 486 1319 l 486 1250 l 556 1250 l 556 1181 l 347 1181 l 347 1250 l 208 1250 l 208 1181 l 0 1181 l 0 1250 m 69 972 l 139 972 l 139 1042 l 69 1042 l 69 972 z "},"ï":{"ha":833,"x_min":0,"x_max":694,"o":"m 69 1042 l 139 1042 l 139 1111 l 556 1111 l 556 1042 l 625 1042 l 625 833 l 486 833 l 486 278 l 625 278 l 625 0 l 69 0 l 69 278 l 208 278 l 208 833 l 69 833 l 69 1042 m 0 1319 l 69 1319 l 69 1389 l 278 1389 l 278 1181 l 0 1181 l 0 1319 m 417 1319 l 486 1319 l 486 1389 l 694 1389 l 694 1181 l 417 1181 l 417 1319 m 139 972 l 208 972 l 208 1042 l 139 1042 l 139 972 z "},"ð":{"ha":972,"x_min":0,"x_max":833,"o":"m 208 1528 l 278 1528 l 278 1597 l 417 1597 l 417 1528 l 486 1528 l 486 1458 l 556 1458 l 556 1389 l 625 1389 l 625 1319 l 694 1319 l 694 1250 l 764 1250 l 764 1181 l 833 1181 l 833 69 l 764 69 l 764 0 l 69 0 l 69 69 l 0 69 l 0 1042 l 69 1042 l 69 1111 l 486 1111 l 486 1181 l 417 1181 l 417 1250 l 347 1250 l 347 1319 l 278 1319 l 278 1389 l 208 1389 l 208 1528 m 556 833 l 278 833 l 278 278 l 556 278 l 556 833 m 69 972 l 139 972 l 139 1042 l 69 1042 l 69 972 z "},"ñ":{"ha":972,"x_min":0,"x_max":833,"o":"m 0 1042 l 69 1042 l 69 1111 l 764 1111 l 764 1042 l 833 1042 l 833 0 l 556 0 l 556 833 l 278 833 l 278 0 l 0 0 l 0 1042 m 139 1319 l 208 1319 l 208 1389 l 486 1389 l 486 1319 l 625 1319 l 625 1389 l 764 1389 l 764 1250 l 694 1250 l 694 1181 l 417 1181 l 417 1250 l 278 1250 l 278 1181 l 139 1181 l 139 1319 m 69 972 l 139 972 l 139 1042 l 69 1042 l 69 972 z "},"ò":{"ha":972,"x_min":0,"x_max":833,"o":"m 0 1042 l 69 1042 l 69 1111 l 764 1111 l 764 1042 l 833 1042 l 833 69 l 764 69 l 764 0 l 69 0 l 69 69 l 0 69 l 0 1042 m 278 278 l 556 278 l 556 833 l 278 833 l 278 278 m 139 1389 l 417 1389 l 417 1319 l 486 1319 l 486 1250 l 556 1250 l 556 1181 l 278 1181 l 278 1250 l 208 1250 l 208 1319 l 139 1319 l 139 1389 m 69 972 l 139 972 l 139 1042 l 69 1042 l 69 972 z "},"ó":{"ha":972,"x_min":0,"x_max":833,"o":"m 0 1042 l 69 1042 l 69 1111 l 764 1111 l 764 1042 l 833 1042 l 833 69 l 764 69 l 764 0 l 69 0 l 69 69 l 0 69 l 0 1042 m 278 278 l 556 278 l 556 833 l 278 833 l 278 278 m 278 1250 l 347 1250 l 347 1319 l 417 1319 l 417 1389 l 694 1389 l 694 1319 l 625 1319 l 625 1250 l 556 1250 l 556 1181 l 278 1181 l 278 1250 m 69 972 l 139 972 l 139 1042 l 69 1042 l 69 972 z "},"ô":{"ha":972,"x_min":0,"x_max":833,"o":"m 0 1042 l 69 1042 l 69 1111 l 764 1111 l 764 1042 l 833 1042 l 833 69 l 764 69 l 764 0 l 69 0 l 69 69 l 0 69 l 0 1042 m 278 278 l 556 278 l 556 833 l 278 833 l 278 278 m 139 1250 l 208 1250 l 208 1319 l 278 1319 l 278 1389 l 556 1389 l 556 1319 l 625 1319 l 625 1250 l 694 1250 l 694 1181 l 486 1181 l 486 1250 l 347 1250 l 347 1181 l 139 1181 l 139 1250 m 69 972 l 139 972 l 139 1042 l 69 1042 l 69 972 z "},"õ":{"ha":972,"x_min":0,"x_max":833,"o":"m 0 1042 l 69 1042 l 69 1111 l 764 1111 l 764 1042 l 833 1042 l 833 69 l 764 69 l 764 0 l 69 0 l 69 69 l 0 69 l 0 1042 m 278 278 l 556 278 l 556 833 l 278 833 l 278 278 m 139 1319 l 208 1319 l 208 1389 l 486 1389 l 486 1319 l 625 1319 l 625 1389 l 764 1389 l 764 1250 l 694 1250 l 694 1181 l 417 1181 l 417 1250 l 278 1250 l 278 1181 l 139 1181 l 139 1319 m 69 972 l 139 972 l 139 1042 l 69 1042 l 69 972 z "},"ö":{"ha":972,"x_min":0,"x_max":833,"o":"m 0 1042 l 69 1042 l 69 1111 l 764 1111 l 764 1042 l 833 1042 l 833 69 l 764 69 l 764 0 l 69 0 l 69 69 l 0 69 l 0 1042 m 278 278 l 556 278 l 556 833 l 278 833 l 278 278 m 486 1319 l 556 1319 l 556 1389 l 764 1389 l 764 1181 l 486 1181 l 486 1319 m 69 1319 l 139 1319 l 139 1389 l 347 1389 l 347 1181 l 69 1181 l 69 1319 m 69 972 l 139 972 l 139 1042 l 69 1042 l 69 972 z "},"÷":{"ha":972,"x_min":0,"x_max":833,"o":"m 0 764 l 69 764 l 69 833 l 833 833 l 833 556 l 0 556 l 0 764 m 278 1250 l 556 1250 l 556 972 l 278 972 l 278 1250 m 278 417 l 556 417 l 556 139 l 278 139 l 278 417 m 69 694 l 139 694 l 139 764 l 69 764 l 69 694 z "},"ø":{"ha":972,"x_min":0,"x_max":833,"o":"m 0 1042 l 69 1042 l 69 1111 l 764 1111 l 764 1042 l 833 1042 l 833 69 l 764 69 l 764 0 l 69 0 l 69 69 l 0 69 l 0 1042 m 556 556 l 486 556 l 486 486 l 417 486 l 417 417 l 347 417 l 347 347 l 278 347 l 278 278 l 556 278 l 556 556 m 278 556 l 347 556 l 347 625 l 417 625 l 417 694 l 486 694 l 486 764 l 556 764 l 556 833 l 278 833 l 278 556 m 69 972 l 139 972 l 139 1042 l 69 1042 l 69 972 z "},"ù":{"ha":972,"x_min":0,"x_max":833,"o":"m 0 1042 l 69 1042 l 69 1111 l 278 1111 l 278 278 l 556 278 l 556 1111 l 764 1111 l 764 1042 l 833 1042 l 833 69 l 764 69 l 764 0 l 69 0 l 69 69 l 0 69 l 0 1042 m 139 1389 l 417 1389 l 417 1319 l 486 1319 l 486 1250 l 556 1250 l 556 1181 l 278 1181 l 278 1250 l 208 1250 l 208 1319 l 139 1319 l 139 1389 m 69 972 l 139 972 l 139 1042 l 69 1042 l 69 972 z "},"ú":{"ha":972,"x_min":0,"x_max":833,"o":"m 0 1042 l 69 1042 l 69 1111 l 278 1111 l 278 278 l 556 278 l 556 1111 l 764 1111 l 764 1042 l 833 1042 l 833 69 l 764 69 l 764 0 l 69 0 l 69 69 l 0 69 l 0 1042 m 278 1250 l 347 1250 l 347 1319 l 417 1319 l 417 1389 l 694 1389 l 694 1319 l 625 1319 l 625 1250 l 556 1250 l 556 1181 l 278 1181 l 278 1250 m 69 972 l 139 972 l 139 1042 l 69 1042 l 69 972 z "},"û":{"ha":972,"x_min":0,"x_max":833,"o":"m 0 1042 l 69 1042 l 69 1111 l 278 1111 l 278 278 l 556 278 l 556 1111 l 764 1111 l 764 1042 l 833 1042 l 833 69 l 764 69 l 764 0 l 69 0 l 69 69 l 0 69 l 0 1042 m 139 1250 l 208 1250 l 208 1319 l 278 1319 l 278 1389 l 556 1389 l 556 1319 l 625 1319 l 625 1250 l 694 1250 l 694 1181 l 486 1181 l 486 1250 l 347 1250 l 347 1181 l 139 1181 l 139 1250 m 69 972 l 139 972 l 139 1042 l 69 1042 l 69 972 z "},"ü":{"ha":972,"x_min":0,"x_max":833,"o":"m 0 1042 l 69 1042 l 69 1111 l 278 1111 l 278 278 l 556 278 l 556 1111 l 764 1111 l 764 1042 l 833 1042 l 833 69 l 764 69 l 764 0 l 69 0 l 69 69 l 0 69 l 0 1042 m 69 1319 l 139 1319 l 139 1389 l 347 1389 l 347 1181 l 69 1181 l 69 1319 m 486 1319 l 556 1319 l 556 1389 l 764 1389 l 764 1181 l 486 1181 l 486 1319 m 69 972 l 139 972 l 139 1042 l 69 1042 l 69 972 z "},"ý":{"ha":972,"x_min":0,"x_max":833,"o":"m 0 1042 l 69 1042 l 69 1111 l 278 1111 l 278 278 l 556 278 l 556 1111 l 764 1111 l 764 1042 l 833 1042 l 833 -347 l 764 -347 l 764 -417 l 208 -417 l 208 -347 l 139 -347 l 139 -139 l 556 -139 l 556 0 l 69 0 l 69 69 l 0 69 l 0 1042 m 278 1250 l 347 1250 l 347 1319 l 417 1319 l 417 1389 l 694 1389 l 694 1319 l 625 1319 l 625 1250 l 556 1250 l 556 1181 l 278 1181 l 278 1250 m 69 972 l 139 972 l 139 1042 l 69 1042 l 69 972 z "},"þ":{"ha":972,"x_min":0,"x_max":833,"o":"m 0 1319 l 69 1319 l 69 1389 l 278 1389 l 278 1111 l 764 1111 l 764 1042 l 833 1042 l 833 69 l 764 69 l 764 0 l 278 0 l 278 -278 l 0 -278 l 0 1319 m 278 278 l 556 278 l 556 833 l 278 833 l 278 278 m 69 1250 l 139 1250 l 139 1319 l 69 1319 l 69 1250 z "},"ÿ":{"ha":972,"x_min":0,"x_max":833,"o":"m 0 1042 l 69 1042 l 69 1111 l 278 1111 l 278 278 l 556 278 l 556 1111 l 764 1111 l 764 1042 l 833 1042 l 833 -347 l 764 -347 l 764 -417 l 208 -417 l 208 -347 l 139 -347 l 139 -139 l 556 -139 l 556 0 l 69 0 l 69 69 l 0 69 l 0 1042 m 486 1319 l 556 1319 l 556 1389 l 764 1389 l 764 1181 l 486 1181 l 486 1319 m 69 1319 l 139 1319 l 139 1389 l 347 1389 l 347 1181 l 69 1181 l 69 1319 m 69 972 l 139 972 l 139 1042 l 69 1042 l 69 972 z "},"Œ":{"ha":1250,"x_min":0,"x_max":1111,"o":"m 0 1319 l 69 1319 l 69 1389 l 1042 1389 l 1042 1319 l 1111 1319 l 1111 1111 l 694 1111 l 694 833 l 972 833 l 972 556 l 694 556 l 694 278 l 1111 278 l 1111 69 l 1042 69 l 1042 0 l 69 0 l 69 69 l 0 69 l 0 1319 m 278 278 l 417 278 l 417 1111 l 278 1111 l 278 278 m 69 1250 l 139 1250 l 139 1319 l 69 1319 l 69 1250 z "},"œ":{"ha":1250,"x_min":0,"x_max":1111,"o":"m 0 1042 l 69 1042 l 69 1111 l 1042 1111 l 1042 1042 l 1111 1042 l 1111 486 l 1042 486 l 1042 417 l 694 417 l 694 278 l 1111 278 l 1111 0 l 69 0 l 69 69 l 0 69 l 0 1042 m 278 278 l 417 278 l 417 833 l 278 833 l 278 278 m 694 694 l 833 694 l 833 833 l 694 833 l 694 694 m 69 972 l 139 972 l 139 1042 l 69 1042 l 69 972 z "},"Š":{"ha":972,"x_min":0,"x_max":833,"o":"m 0 1319 l 69 1319 l 69 1389 l 764 1389 l 764 1319 l 833 1319 l 833 972 l 556 972 l 556 1111 l 278 1111 l 278 833 l 764 833 l 764 764 l 833 764 l 833 69 l 764 69 l 764 0 l 69 0 l 69 69 l 0 69 l 0 417 l 278 417 l 278 278 l 556 278 l 556 556 l 69 556 l 69 625 l 0 625 l 0 1319 m 139 1597 l 208 1597 l 208 1667 l 486 1667 l 486 1597 l 625 1597 l 625 1667 l 764 1667 l 764 1528 l 694 1528 l 694 1458 l 417 1458 l 417 1528 l 278 1528 l 278 1458 l 139 1458 l 139 1597 m 69 1250 l 139 1250 l 139 1319 l 69 1319 l 69 1250 z "},"š":{"ha":972,"x_min":0,"x_max":833,"o":"m 0 1042 l 69 1042 l 69 1111 l 764 1111 l 764 1042 l 833 1042 l 833 833 l 278 833 l 278 694 l 764 694 l 764 625 l 833 625 l 833 69 l 764 69 l 764 0 l 69 0 l 69 69 l 0 69 l 0 278 l 556 278 l 556 417 l 69 417 l 69 486 l 0 486 l 0 1042 m 139 1319 l 208 1319 l 208 1389 l 486 1389 l 486 1319 l 625 1319 l 625 1389 l 764 1389 l 764 1250 l 694 1250 l 694 1181 l 417 1181 l 417 1250 l 278 1250 l 278 1181 l 139 1181 l 139 1319 m 69 972 l 139 972 l 139 1042 l 69 1042 l 69 972 z "},"Ÿ":{"ha":972,"x_min":0,"x_max":833,"o":"m 0 1319 l 69 1319 l 69 1389 l 278 1389 l 278 972 l 347 972 l 347 903 l 486 903 l 486 972 l 556 972 l 556 1389 l 764 1389 l 764 1319 l 833 1319 l 833 903 l 764 903 l 764 833 l 694 833 l 694 764 l 625 764 l 625 694 l 556 694 l 556 0 l 278 0 l 278 694 l 208 694 l 208 764 l 139 764 l 139 833 l 69 833 l 69 903 l 0 903 l 0 1319 m 486 1597 l 556 1597 l 556 1667 l 764 1667 l 764 1458 l 486 1458 l 486 1597 m 69 1597 l 139 1597 l 139 1667 l 347 1667 l 347 1458 l 69 1458 l 69 1597 m 69 1250 l 139 1250 l 139 1319 l 69 1319 l 69 1250 z "},"Ž":{"ha":972,"x_min":0,"x_max":833,"o":"m 0 1319 l 69 1319 l 69 1389 l 764 1389 l 764 1319 l 833 1319 l 833 903 l 764 903 l 764 833 l 694 833 l 694 764 l 625 764 l 625 694 l 556 694 l 556 625 l 486 625 l 486 556 l 417 556 l 417 486 l 347 486 l 347 417 l 278 417 l 278 278 l 833 278 l 833 69 l 764 69 l 764 0 l 69 0 l 69 69 l 0 69 l 0 486 l 69 486 l 69 556 l 139 556 l 139 625 l 208 625 l 208 694 l 278 694 l 278 764 l 347 764 l 347 833 l 417 833 l 417 903 l 486 903 l 486 972 l 556 972 l 556 1111 l 0 1111 l 0 1319 m 139 1667 l 347 1667 l 347 1597 l 486 1597 l 486 1667 l 694 1667 l 694 1597 l 625 1597 l 625 1528 l 556 1528 l 556 1458 l 278 1458 l 278 1528 l 208 1528 l 208 1597 l 139 1597 l 139 1667 m 69 1250 l 139 1250 l 139 1319 l 69 1319 l 69 1250 z "},"ž":{"ha":972,"x_min":0,"x_max":833,"o":"m 0 1042 l 69 1042 l 69 1111 l 764 1111 l 764 1042 l 833 1042 l 833 764 l 764 764 l 764 694 l 694 694 l 694 625 l 625 625 l 625 556 l 556 556 l 556 486 l 486 486 l 486 417 l 417 417 l 417 347 l 347 347 l 347 278 l 833 278 l 833 0 l 0 0 l 0 347 l 69 347 l 69 417 l 139 417 l 139 486 l 208 486 l 208 556 l 278 556 l 278 625 l 347 625 l 347 694 l 417 694 l 417 764 l 486 764 l 486 833 l 0 833 l 0 1042 m 139 1389 l 347 1389 l 347 1319 l 486 1319 l 486 1389 l 694 1389 l 694 1319 l 625 1319 l 625 1250 l 556 1250 l 556 1181 l 278 1181 l 278 1250 l 208 1250 l 208 1319 l 139 1319 l 139 1389 m 69 972 l 139 972 l 139 1042 l 69 1042 l 69 972 z "},"ƒ":{"ha":903,"x_min":0,"x_max":764,"o":"m 69 972 l 208 972 l 208 1319 l 278 1319 l 278 1389 l 694 1389 l 694 1319 l 764 1319 l 764 1111 l 486 1111 l 486 972 l 694 972 l 694 694 l 486 694 l 486 -208 l 417 -208 l 417 -278 l 69 -278 l 69 -208 l 0 -208 l 0 0 l 208 0 l 208 694 l 69 694 l 69 972 m 278 1250 l 347 1250 l 347 1319 l 278 1319 l 278 1250 z "},"ˆ":{"ha":1042,"x_min":0,"x_max":903,"o":"m 0 972 l 69 972 l 69 1042 l 139 1042 l 139 1111 l 208 1111 l 208 1181 l 278 1181 l 278 1250 l 347 1250 l 347 1319 l 417 1319 l 417 1389 l 486 1389 l 486 1319 l 556 1319 l 556 1250 l 625 1250 l 625 1181 l 694 1181 l 694 1111 l 764 1111 l 764 1042 l 833 1042 l 833 972 l 903 972 l 903 903 l 833 903 l 833 833 l 625 833 l 625 903 l 556 903 l 556 972 l 486 972 l 486 1042 l 417 1042 l 417 972 l 347 972 l 347 903 l 278 903 l 278 833 l 69 833 l 69 903 l 0 903 l 0 972 m 417 1250 l 486 1250 l 486 1319 l 417 1319 l 417 1250 z "},"˜":{"ha":1250,"x_min":0,"x_max":1111,"o":"m 0 1042 l 69 1042 l 69 1111 l 139 1111 l 139 1181 l 208 1181 l 208 1250 l 278 1250 l 278 1319 l 347 1319 l 347 1389 l 486 1389 l 486 1319 l 556 1319 l 556 1250 l 625 1250 l 625 1181 l 764 1181 l 764 1250 l 833 1250 l 833 1319 l 903 1319 l 903 1389 l 1042 1389 l 1042 1319 l 1111 1319 l 1111 1181 l 1042 1181 l 1042 1111 l 972 1111 l 972 1042 l 903 1042 l 903 972 l 833 972 l 833 903 l 764 903 l 764 833 l 625 833 l 625 903 l 556 903 l 556 972 l 486 972 l 486 1042 l 347 1042 l 347 972 l 278 972 l 278 903 l 208 903 l 208 833 l 69 833 l 69 903 l 0 903 l 0 1042 m 347 1250 l 417 1250 l 417 1319 l 347 1319 l 347 1250 z "},"$":{"ha":1111,"x_min":0,"x_max":972,"o":"m 0 1319 l 69 1319 l 69 1389 l 417 1389 l 417 1528 l 556 1528 l 556 1389 l 903 1389 l 903 1319 l 972 1319 l 972 972 l 694 972 l 694 1111 l 556 1111 l 556 833 l 903 833 l 903 764 l 972 764 l 972 69 l 903 69 l 903 0 l 556 0 l 556 -139 l 417 -139 l 417 0 l 69 0 l 69 69 l 0 69 l 0 417 l 278 417 l 278 278 l 417 278 l 417 556 l 69 556 l 69 625 l 0 625 l 0 1319 m 417 1111 l 278 1111 l 278 833 l 417 833 l 417 1111 m 556 278 l 694 278 l 694 556 l 556 556 l 556 278 m 69 1250 l 139 1250 l 139 1319 l 69 1319 l 69 1250 z "},"⁄":{"ha":1111,"x_min":0,"x_max":972,"o":"m 0 347 l 69 347 l 69 417 l 139 417 l 139 486 l 208 486 l 208 556 l 278 556 l 278 625 l 347 625 l 347 694 l 417 694 l 417 764 l 486 764 l 486 833 l 556 833 l 556 903 l 625 903 l 625 972 l 694 972 l 694 1042 l 764 1042 l 764 1111 l 833 1111 l 833 1181 l 972 1181 l 972 1042 l 903 1042 l 903 972 l 833 972 l 833 903 l 764 903 l 764 833 l 694 833 l 694 764 l 625 764 l 625 694 l 556 694 l 556 625 l 486 625 l 486 556 l 417 556 l 417 486 l 347 486 l 347 417 l 278 417 l 278 347 l 208 347 l 208 278 l 139 278 l 139 208 l 0 208 l 0 347 z "},"ı":{"ha":694,"x_min":0,"x_max":556,"o":"m 0 1042 l 69 1042 l 69 1111 l 486 1111 l 486 1042 l 556 1042 l 556 833 l 417 833 l 417 278 l 556 278 l 556 0 l 0 0 l 0 278 l 139 278 l 139 833 l 0 833 l 0 1042 m 69 972 l 139 972 l 139 1042 l 69 1042 l 69 972 z "},"ˇ":{"ha":833,"x_min":139,"x_max":694,"o":"m 139 1528 l 208 1528 l 208 1597 l 278 1597 l 278 1667 l 556 1667 l 556 1597 l 625 1597 l 625 1528 l 694 1528 l 694 1458 l 486 1458 l 486 1528 l 347 1528 l 347 1458 l 139 1458 l 139 1528 z "},"˙":{"ha":417,"x_min":0,"x_max":278,"o":"m 0 1389 l 278 1389 l 278 1111 l 0 1111 l 0 1389 z "},"˚":{"ha":556,"x_min":0,"x_max":417,"o":"m 0 1319 l 69 1319 l 69 1389 l 347 1389 l 347 1319 l 417 1319 l 417 1042 l 347 1042 l 347 972 l 69 972 l 69 1042 l 0 1042 l 0 1319 m 139 1111 l 278 1111 l 278 1250 l 139 1250 l 139 1111 z "},"!":{"ha":417,"x_min":0,"x_max":278,"o":"m 0 1319 l 69 1319 l 69 1389 l 278 1389 l 278 417 l 0 417 l 0 1319 m 0 278 l 278 278 l 278 0 l 0 0 l 0 278 m 69 1250 l 139 1250 l 139 1319 l 69 1319 l 69 1250 z "},"\"":{"ha":833,"x_min":0,"x_max":694,"o":"m 0 1319 l 69 1319 l 69 1389 l 278 1389 l 278 972 l 208 972 l 208 903 l 0 903 l 0 1319 m 417 1319 l 486 1319 l 486 1389 l 694 1389 l 694 972 l 625 972 l 625 903 l 417 903 l 417 1319 z "},"#":{"ha":1111,"x_min":0,"x_max":972,"o":"m 0 1111 l 139 1111 l 139 1319 l 208 1319 l 208 1389 l 417 1389 l 417 1111 l 556 1111 l 556 1319 l 625 1319 l 625 1389 l 833 1389 l 833 1111 l 972 1111 l 972 833 l 833 833 l 833 556 l 972 556 l 972 278 l 833 278 l 833 0 l 556 0 l 556 278 l 417 278 l 417 0 l 139 0 l 139 278 l 0 278 l 0 556 l 139 556 l 139 833 l 0 833 l 0 1111 m 417 556 l 556 556 l 556 833 l 417 833 l 417 556 m 208 1250 l 278 1250 l 278 1319 l 208 1319 l 208 1250 m 625 1250 l 694 1250 l 694 1319 l 625 1319 l 625 1250 z "}}}
